<?xml version="1.0" encoding="iso-8859-1"?>
<!-- Generator: Adobe Illustrator 19.0.0, SVG Export Plug-In . SVG Version: 6.00 Build 0)  -->
<svg version="1.1" id="Capa_1" xmlns="http://www.w3.org/2000/svg" xmlns:xlink="http://www.w3.org/1999/xlink" x="0px" y="0px"
	 viewBox="0 0 321 321" style="enable-background:new 0 0 321 321;" xml:space="preserve">
<g>
	<g>
		<path d="M306.3,106.6L165.9,1.8c-2.8-2.4-7.2-2.4-10,0L14.7,106.6c-2,1.6-3.6,4-3.6,6.8v199.2c0.4,4.8,4,8.4,8.8,8.4h281.6
			c4.8,0,8.4-3.6,8.4-8.4V113.4C309.9,110.6,308.7,108.2,306.3,106.6z M193.5,304.2h-65.6v-98.4h65.6V304.2z M293.1,304.2h-82.8
			V197.4c0-4.8-3.6-8.4-8.4-8.4h-82.4c-4.8,0-8.4,3.6-8.4,8.4v106.8H28.3V117.4L160.7,19l132.4,98.4V304.2z"/>
	</g>
</g>
<g>
</g>
<g>
</g>
<g>
</g>
<g>
</g>
<g>
</g>
<g>
</g>
<g>
</g>
<g>
</g>
<g>
</g>
<g>
</g>
<g>
</g>
<g>
</g>
<g>
</g>
<g>
</g>
<g>
</g>
</svg>
