<?xml version="1.0"?>
<svg xmlns="http://www.w3.org/2000/svg" id="Layer_1" data-name="Layer 1" viewBox="0 0 128 128" width="512" height="512"><title>BOXES</title><path d="M117.825,65.82c-.011-.014-.012-.026-.025-.04l-6.889-7.656a1.748,1.748,0,0,0-1.3-.58H90.937V25.084A1.735,1.735,0,0,0,90.5,23.94c-.006-.008-.006-.018-.013-.026l-6.61-7.346a1.748,1.748,0,0,0-1.3-.58H45.423a1.748,1.748,0,0,0-1.3.58l-6.61,7.346c-.008.009-.008.019-.015.028a1.735,1.735,0,0,0-.434,1.142v32.46H18.389a1.748,1.748,0,0,0-1.3.58L10.2,65.78c-.009.01-.009.021-.017.031a1.735,1.735,0,0,0-.432,1.14v43.311a1.75,1.75,0,0,0,1.75,1.75h105a1.75,1.75,0,0,0,1.75-1.75V66.951A1.734,1.734,0,0,0,117.825,65.82Zm-5.254-.619H98.521l-2.337-4.156h12.648ZM84.752,68.7h11V76l-4.69-2.438a1.75,1.75,0,0,0-1.614,0L84.752,76Zm-52.5,0h11V76l-4.69-2.438a1.75,1.75,0,0,0-1.614,0L32.252,76ZM58.8,26.834H69.2v6.819l-4.4-2.286a1.75,1.75,0,0,0-1.614,0l-4.4,2.286Zm-3.5,0v9.7a1.75,1.75,0,0,0,2.557,1.553L64,34.893l6.147,3.2A1.75,1.75,0,0,0,72.7,36.535v-9.7H87.437V64.891H40.563V26.834Zm36.872,34.21L94.505,65.2H90.937V61.045Zm-6.91-37.71H71.978l-2.163-3.846H81.8ZM65.8,19.489l2.163,3.846H60.038L62.2,19.489Zm-19.6,0H58.185l-2.163,3.846H42.742ZM37.063,65.2H33.495l2.337-4.156h1.232Zm-17.9-4.156H31.816L29.479,65.2H15.429ZM13.25,68.7h15.5V78.885a1.75,1.75,0,0,0,2.557,1.553l6.44-3.348,6.44,3.348a1.75,1.75,0,0,0,2.557-1.553V68.7h15.5v39.811h-49Zm101.5,39.811h-49V68.7h15.5V78.885a1.75,1.75,0,0,0,2.557,1.553l6.44-3.348,6.44,3.348a1.75,1.75,0,0,0,2.557-1.553V68.7h15.5Z"/></svg>
