<?xml version="1.0" encoding="UTF-8" standalone="no"?>
<svg
        xmlns:dc="http://purl.org/dc/elements/1.1/"
        xmlns:cc="http://creativecommons.org/ns#"
        xmlns:rdf="http://www.w3.org/1999/02/22-rdf-syntax-ns#"
        xmlns="http://www.w3.org/2000/svg"
        xmlns:sodipodi="http://sodipodi.sourceforge.net/DTD/sodipodi-0.dtd"
        xmlns:inkscape="http://www.inkscape.org/namespaces/inkscape"
        id="Layer_1"
        height="512"
        viewBox="0 0 128 128"
        width="512"
        data-name="Layer 1"
        version="1.1"
        sodipodi:docname="white_single_box.svg"
        inkscape:version="0.92.4 (5da689c313, 2019-01-14)">
  <metadata
     id="metadata5165">
    <rdf:RDF>
      <cc:Work
         rdf:about="">
        <dc:format>image/svg+xml</dc:format>
        <dc:type
           rdf:resource="http://purl.org/dc/dcmitype/StillImage" />
        <dc:title></dc:title>
      </cc:Work>
    </rdf:RDF>
  </metadata>
  <defs
     id="defs5163" />
  <sodipodi:namedview
     pagecolor="#ffffff"
     bordercolor="#666666"
     borderopacity="1"
     objecttolerance="10"
     gridtolerance="10"
     guidetolerance="10"
     inkscape:pageopacity="0"
     inkscape:pageshadow="2"
     inkscape:window-width="958"
     inkscape:window-height="1008"
     id="namedview5161"
     showgrid="false"
     inkscape:zoom="0.4609375"
     inkscape:cx="256"
     inkscape:cy="256"
     inkscape:window-x="1913"
     inkscape:window-y="0"
     inkscape:window-maximized="0"
     inkscape:current-layer="Layer_1" />
  <path
     d="m116.5 103.11h-8.661v-67.694a1.735 1.735 0 0 0 -.429-1.136c-.009-.011-.01-.023-.02-.034l-11.045-12.276a1.748 1.748 0 0 0 -1.3-.58h-62.089a1.748 1.748 0 0 0 -1.3.58l-11.046 12.275c-.006.007-.006.018-.012.024a1.735 1.735 0 0 0 -.437 1.146v67.695h-8.661a1.75 1.75 0 0 0 0 3.5h105a1.75 1.75 0 0 0 0-3.5zm-14.339-69.444h-25.517l-4.935-8.776h22.556zm-48.031 3.5h19.741v14.5l-9.063-4.711a1.75 1.75 0 0 0 -1.614 0l-9.063 4.711zm13.564-12.276 4.935 8.775h-17.258l4.935-8.775zm-33.958 0h22.555l-4.935 8.775h-25.517zm-10.075 78.22v-65.944h26.968v17.385a1.75 1.75 0 0 0 2.558 1.549l10.813-5.618 10.813 5.618a1.75 1.75 0 0 0 2.557-1.553v-17.381h26.969v65.944z"
     id="path5158" />
  <path
     style="fill:#8a8a8a;fill-opacity:1;stroke-width:1"
     d="m 40.537239,421.36268 c -2.239681,-5.83652 3.627827,-7.8576 22.811914,-7.8576 H 82.440678 V 276.02916 138.55323 l 23.956072,-26.32068 23.95608,-26.320686 h 125.59059 125.59061 l 9.61891,10.305085 c 5.2904,5.667801 16.09609,17.562541 24.01265,26.432761 l 14.39373,16.12768 v 137.36385 137.36384 h 19.09153 c 19.1841,0 25.05159,2.02108 22.81192,7.8576 -1.717,4.47442 -429.208532,4.47442 -430.925531,0 z M 418.18617,280.62373 417.62712,147.74237 h -54.23729 -54.23729 l -0.59268,37.21093 c -0.47239,29.65805 -1.21502,37.44973 -3.6587,38.38745 -1.68628,0.6471 -13.37888,-4.20924 -25.98356,-10.79186 L 256,200.58049 l -22.91759,11.9684 c -12.60468,6.58262 -24.29729,11.43896 -25.98358,10.79186 -2.44368,-0.93772 -3.1863,-8.7294 -3.65868,-38.38745 l -0.59269,-37.21093 H 148.61017 94.372881 L 93.813832,280.62373 93.254784,413.50508 H 256 418.74521 Z M 236.51793,197.6189 256,187.83442 l 19.48208,9.78448 c 10.71514,5.38147 20.01727,9.78449 20.67139,9.78449 0.65412,0 0.91769,-13.42373 0.58572,-29.83051 l -0.6036,-29.83051 H 256 215.86441 l -0.6036,29.83051 c -0.33197,16.40678 -0.0684,29.83051 0.58573,29.83051 0.65412,0 9.95625,-4.40302 20.67139,-9.78449 z M 216.0105,118.45424 c 5.16887,-8.94916 9.44715,-17.00339 9.50728,-17.89831 0.0601,-0.894913 -20.46426,-1.627116 -45.60977,-1.627116 H 134.1889 l -10.38982,11.389826 c -5.7144,6.26441 -13.06612,14.5803 -16.33714,18.47977 l -5.94732,7.08992 52.54897,-0.58145 52.54897,-0.58146 z m 74.70136,16.09343 c 0,-0.69437 -4.14915,-8.97897 -9.22033,-18.41023 L 272.27119,98.989715 H 256 239.72881 l -9.22034,17.147725 c -5.07118,9.43126 -9.22033,17.71586 -9.22033,18.41023 0,0.69437 15.62033,1.2625 34.71186,1.2625 19.09153,0 34.71186,-0.56813 34.71186,-1.2625 z m 114.32218,-5.13788 c -2.96207,-3.52021 -10.12681,-11.8062 -15.92168,-18.41331 L 378.57627,98.983566 332.47458,98.95619 c -25.35594,-0.01506 -46.1017,0.506247 -46.1017,1.15845 0,0.65221 4.47866,8.95051 9.95259,18.44068 l 9.95258,17.25485 h 52.07077 52.07079 z"
     id="path5710"
     inkscape:connector-curvature="0"
     transform="scale(0.25)" />
  <path
     style="fill:#fff000;fill-opacity:0;stroke-width:1"
     d="m 123.51345,422.79185 c -44.349641,-0.6928 -81.339275,-1.96454 -82.199191,-2.82606 -2.98597,-2.99158 10.258328,-6.02681 26.298161,-6.02681 H 83.742373 V 276.17841 138.41784 l 23.322037,-25.85126 23.32203,-25.851255 125.19648,-0.184781 125.19645,-0.184781 23.95609,26.320677 23.95607,26.32069 v 137.47592 137.47593 h 13.8305 c 26.1368,0 37.37748,5.17296 16,7.36321 -18.11735,1.85622 -246.52653,2.87189 -335.00858,1.48966 z m 296.50011,-73.58381 c 0,-35.60203 -0.64581,-95.64271 -1.43514,-133.42374 L 417.1433,147.09153 H 362.17164 307.2 l -0.15252,34.16949 c -0.084,18.79322 -0.84104,35.91279 -1.68265,38.0435 -1.37405,3.47878 -3.95922,2.68268 -25.33903,-7.80316 l -23.80885,-11.67718 -23.57959,11.56863 c -12.96878,6.36275 -24.43996,11.0369 -25.49153,10.387 -1.05156,-0.64991 -1.91778,-9.6664 -1.92494,-20.03666 -0.007,-10.37026 -0.63998,-26.90925 -1.4063,-36.75332 l -1.3933,-17.8983 H 147.42082 92.420339 V 280.51525 413.93898 H 256.21695 420.01356 Z m -182.24243,-150.99438 18.43554,-9.40571 19.08304,9.58408 c 10.49569,5.27125 20.01664,9.00709 21.15768,8.30189 2.37219,-1.46609 2.69486,-23.42074 0.66076,-44.95833 l -1.38305,-14.64406 h -40.90661 -40.90663 v 30.37288 c 0,22.91009 0.66632,30.34611 2.71187,30.26392 1.49152,-0.0599 11.00786,-4.34153 21.1474,-9.51467 z m -20.81214,-79.8679 9.81066,-17.8983 -17.81872,-1.411799 c -9.8003,-0.776488 -30.63466,-1.508692 -46.29858,-1.627119 L 134.1725,97.19322 120.31482,112.92203 c -7.62173,8.65085 -15.18296,17.43729 -16.80274,19.52543 -2.78689,3.59271 -0.083,3.79661 50.34559,3.79661 h 53.29066 z m 75.05457,16.49125 c 0,-0.77388 -4.46603,-9.60008 -9.92449,-19.61377 l -9.92449,-18.206712 -16.49829,0.630719 -16.49829,0.630719 -8.15124,15.074284 c -4.48318,8.29085 -7.66751,15.85695 -7.0763,16.81356 0.59122,0.9566 0.041,1.73927 -1.22259,1.73927 -1.26364,0 -2.29753,0.97628 -2.29753,2.1695 0,1.35867 13.37853,2.16949 35.79661,2.16949 19.68813,0 35.79661,-0.63318 35.79661,-1.40706 z m 116.80638,-2.38955 c -1.75347,-2.08814 -9.47087,-11.00889 -17.14979,-19.82389 l -13.96168,-16.02728 -45.20979,1.214473 c -24.86539,0.66796 -45.6873,1.691989 -46.27094,2.275617 -0.58363,0.58363 3.49369,8.95787 9.06069,18.60942 l 10.12183,17.54827 h 53.29891 c 50.52907,0 53.13324,-0.1973 50.11077,-3.79661 z"
     id="path5712"
     inkscape:connector-curvature="0"
     transform="scale(0.25)" />
  <path
     style="fill:#fff000;fill-opacity:0;stroke-width:1"
     d="m 123.51345,422.79185 c -44.349641,-0.6928 -81.339275,-1.96454 -82.199191,-2.82606 -2.98597,-2.99158 10.258328,-6.02681 26.298161,-6.02681 H 83.742373 V 276.17841 138.41784 l 23.322037,-25.85126 23.32203,-25.851255 125.19648,-0.184781 125.19645,-0.184781 23.95609,26.320677 23.95607,26.32069 v 137.47592 137.47593 h 13.8305 c 26.1368,0 37.37748,5.17296 16,7.36321 -18.11735,1.85622 -246.52653,2.87189 -335.00858,1.48966 z m 296.50011,-73.58381 c 0,-35.60203 -0.64581,-95.64271 -1.43514,-133.42374 L 417.1433,147.09153 H 362.17164 307.2 l -0.15252,34.16949 c -0.084,18.79322 -0.84104,35.91279 -1.68265,38.0435 -1.37405,3.47878 -3.95922,2.68268 -25.33903,-7.80316 l -23.80885,-11.67718 -23.57959,11.56863 c -12.96878,6.36275 -24.43996,11.0369 -25.49153,10.387 -1.05156,-0.64991 -1.91778,-9.6664 -1.92494,-20.03666 -0.007,-10.37026 -0.63998,-26.90925 -1.4063,-36.75332 l -1.3933,-17.8983 H 147.42082 92.420339 V 280.51525 413.93898 H 256.21695 420.01356 Z m -182.24243,-150.99438 18.43554,-9.40571 19.08304,9.58408 c 10.49569,5.27125 20.01664,9.00709 21.15768,8.30189 2.37219,-1.46609 2.69486,-23.42074 0.66076,-44.95833 l -1.38305,-14.64406 h -40.90661 -40.90663 v 30.37288 c 0,22.91009 0.66632,30.34611 2.71187,30.26392 1.49152,-0.0599 11.00786,-4.34153 21.1474,-9.51467 z m -20.81214,-79.8679 9.81066,-17.8983 -17.81872,-1.411799 c -9.8003,-0.776488 -30.63466,-1.508692 -46.29858,-1.627119 L 134.1725,97.19322 120.31482,112.92203 c -7.62173,8.65085 -15.18296,17.43729 -16.80274,19.52543 -2.78689,3.59271 -0.083,3.79661 50.34559,3.79661 h 53.29066 z m 75.05457,16.49125 c 0,-0.77388 -4.46603,-9.60008 -9.92449,-19.61377 l -9.92449,-18.206712 -16.49829,0.630719 -16.49829,0.630719 -8.15124,15.074284 c -4.48318,8.29085 -7.66751,15.85695 -7.0763,16.81356 0.59122,0.9566 0.041,1.73927 -1.22259,1.73927 -1.26364,0 -2.29753,0.97628 -2.29753,2.1695 0,1.35867 13.37853,2.16949 35.79661,2.16949 19.68813,0 35.79661,-0.63318 35.79661,-1.40706 z m 116.80638,-2.38955 c -1.75347,-2.08814 -9.47087,-11.00889 -17.14979,-19.82389 l -13.96168,-16.02728 -45.20979,1.214473 c -24.86539,0.66796 -45.6873,1.691989 -46.27094,2.275617 -0.58363,0.58363 3.49369,8.95787 9.06069,18.60942 l 10.12183,17.54827 h 53.29891 c 50.52907,0 53.13324,-0.1973 50.11077,-3.79661 z"
     id="path5714"
     inkscape:connector-curvature="0"
     transform="scale(0.25)" />
  <path
     style="fill:#fff000;fill-opacity:0;stroke-width:1"
     d="m 123.51345,422.79185 c -44.349641,-0.6928 -81.339275,-1.96454 -82.199191,-2.82606 -2.98597,-2.99158 10.258328,-6.02681 26.298161,-6.02681 H 83.742373 V 276.17841 138.41784 l 23.322037,-25.85126 23.32203,-25.851255 125.19648,-0.184781 125.19645,-0.184781 23.95609,26.320677 23.95607,26.32069 v 137.47592 137.47593 h 13.8305 c 26.1368,0 37.37748,5.17296 16,7.36321 -18.11735,1.85622 -246.52653,2.87189 -335.00858,1.48966 z m 296.50011,-73.58381 c 0,-35.60203 -0.64581,-95.64271 -1.43514,-133.42374 L 417.1433,147.09153 H 362.17164 307.2 l -0.15252,34.16949 c -0.084,18.79322 -0.84104,35.91279 -1.68265,38.0435 -1.37405,3.47878 -3.95922,2.68268 -25.33903,-7.80316 l -23.80885,-11.67718 -23.57959,11.56863 c -12.96878,6.36275 -24.43996,11.0369 -25.49153,10.387 -1.05156,-0.64991 -1.91778,-9.6664 -1.92494,-20.03666 -0.007,-10.37026 -0.63998,-26.90925 -1.4063,-36.75332 l -1.3933,-17.8983 H 147.42082 92.420339 V 280.51525 413.93898 H 256.21695 420.01356 Z m -182.24243,-150.99438 18.43554,-9.40571 19.08304,9.58408 c 10.49569,5.27125 20.01664,9.00709 21.15768,8.30189 2.37219,-1.46609 2.69486,-23.42074 0.66076,-44.95833 l -1.38305,-14.64406 h -40.90661 -40.90663 v 30.37288 c 0,22.91009 0.66632,30.34611 2.71187,30.26392 1.49152,-0.0599 11.00786,-4.34153 21.1474,-9.51467 z m -20.81214,-79.8679 9.81066,-17.8983 -17.81872,-1.411799 c -9.8003,-0.776488 -30.63466,-1.508692 -46.29858,-1.627119 L 134.1725,97.19322 120.31482,112.92203 c -7.62173,8.65085 -15.18296,17.43729 -16.80274,19.52543 -2.78689,3.59271 -0.083,3.79661 50.34559,3.79661 h 53.29066 z m 75.05457,16.49125 c 0,-0.77388 -4.46603,-9.60008 -9.92449,-19.61377 l -9.92449,-18.206712 -16.49829,0.630719 -16.49829,0.630719 -8.15124,15.074284 c -4.48318,8.29085 -7.66751,15.85695 -7.0763,16.81356 0.59122,0.9566 0.041,1.73927 -1.22259,1.73927 -1.26364,0 -2.29753,0.97628 -2.29753,2.1695 0,1.35867 13.37853,2.16949 35.79661,2.16949 19.68813,0 35.79661,-0.63318 35.79661,-1.40706 z m 116.80638,-2.38955 c -1.75347,-2.08814 -9.47087,-11.00889 -17.14979,-19.82389 l -13.96168,-16.02728 -45.20979,1.214473 c -24.86539,0.66796 -45.6873,1.691989 -46.27094,2.275617 -0.58363,0.58363 3.49369,8.95787 9.06069,18.60942 l 10.12183,17.54827 h 53.29891 c 50.52907,0 53.13324,-0.1973 50.11077,-3.79661 z"
     id="path5716"
     inkscape:connector-curvature="0"
     transform="scale(0.25)" />
  <path
     style="fill:#fff000;fill-opacity:0;stroke-width:1"
     d="m 123.51345,422.79185 c -44.349641,-0.6928 -81.339275,-1.96454 -82.199191,-2.82606 -2.98597,-2.99158 10.258328,-6.02681 26.298161,-6.02681 H 83.742373 V 276.17841 138.41784 l 23.322037,-25.85126 23.32203,-25.851255 125.19648,-0.184781 125.19645,-0.184781 23.95609,26.320677 23.95607,26.32069 v 137.47592 137.47593 h 13.8305 c 26.1368,0 37.37748,5.17296 16,7.36321 -18.11735,1.85622 -246.52653,2.87189 -335.00858,1.48966 z m 296.50011,-73.58381 c 0,-35.60203 -0.64581,-95.64271 -1.43514,-133.42374 L 417.1433,147.09153 H 362.17164 307.2 l -0.15252,34.16949 c -0.084,18.79322 -0.84104,35.91279 -1.68265,38.0435 -1.37405,3.47878 -3.95922,2.68268 -25.33903,-7.80316 l -23.80885,-11.67718 -23.57959,11.56863 c -12.96878,6.36275 -24.43996,11.0369 -25.49153,10.387 -1.05156,-0.64991 -1.91778,-9.6664 -1.92494,-20.03666 -0.007,-10.37026 -0.63998,-26.90925 -1.4063,-36.75332 l -1.3933,-17.8983 H 147.42082 92.420339 V 280.51525 413.93898 H 256.21695 420.01356 Z m -182.24243,-150.99438 18.43554,-9.40571 19.08304,9.58408 c 10.49569,5.27125 20.01664,9.00709 21.15768,8.30189 2.37219,-1.46609 2.69486,-23.42074 0.66076,-44.95833 l -1.38305,-14.64406 h -40.90661 -40.90663 v 30.37288 c 0,22.91009 0.66632,30.34611 2.71187,30.26392 1.49152,-0.0599 11.00786,-4.34153 21.1474,-9.51467 z m -20.81214,-79.8679 9.81066,-17.8983 -17.81872,-1.411799 c -9.8003,-0.776488 -30.63466,-1.508692 -46.29858,-1.627119 L 134.1725,97.19322 120.31482,112.92203 c -7.62173,8.65085 -15.18296,17.43729 -16.80274,19.52543 -2.78689,3.59271 -0.083,3.79661 50.34559,3.79661 h 53.29066 z m 75.05457,16.49125 c 0,-0.77388 -4.46603,-9.60008 -9.92449,-19.61377 l -9.92449,-18.206712 -16.49829,0.630719 -16.49829,0.630719 -8.15124,15.074284 c -4.48318,8.29085 -7.66751,15.85695 -7.0763,16.81356 0.59122,0.9566 0.041,1.73927 -1.22259,1.73927 -1.26364,0 -2.29753,0.97628 -2.29753,2.1695 0,1.35867 13.37853,2.16949 35.79661,2.16949 19.68813,0 35.79661,-0.63318 35.79661,-1.40706 z m 116.80638,-2.38955 c -1.75347,-2.08814 -9.47087,-11.00889 -17.14979,-19.82389 l -13.96168,-16.02728 -45.20979,1.214473 c -24.86539,0.66796 -45.6873,1.691989 -46.27094,2.275617 -0.58363,0.58363 3.49369,8.95787 9.06069,18.60942 l 10.12183,17.54827 h 53.29891 c 50.52907,0 53.13324,-0.1973 50.11077,-3.79661 z"
     id="path5718"
     inkscape:connector-curvature="0"
     transform="scale(0.25)" />
  <path
     style="fill:#fff000;fill-opacity:0;stroke-width:1"
     d="m 123.51345,422.79185 c -44.349641,-0.6928 -81.339275,-1.96454 -82.199191,-2.82606 -2.98597,-2.99158 10.258328,-6.02681 26.298161,-6.02681 H 83.742373 V 276.17841 138.41784 l 23.322037,-25.85126 23.32203,-25.851255 125.19648,-0.184781 125.19645,-0.184781 23.95609,26.320677 23.95607,26.32069 v 137.47592 137.47593 h 13.8305 c 26.1368,0 37.37748,5.17296 16,7.36321 -18.11735,1.85622 -246.52653,2.87189 -335.00858,1.48966 z m 296.50011,-73.58381 c 0,-35.60203 -0.64581,-95.64271 -1.43514,-133.42374 L 417.1433,147.09153 H 362.17164 307.2 l -0.15252,34.16949 c -0.084,18.79322 -0.84104,35.91279 -1.68265,38.0435 -1.37405,3.47878 -3.95922,2.68268 -25.33903,-7.80316 l -23.80885,-11.67718 -23.57959,11.56863 c -12.96878,6.36275 -24.43996,11.0369 -25.49153,10.387 -1.05156,-0.64991 -1.91778,-9.6664 -1.92494,-20.03666 -0.007,-10.37026 -0.63998,-26.90925 -1.4063,-36.75332 l -1.3933,-17.8983 H 147.42082 92.420339 V 280.51525 413.93898 H 256.21695 420.01356 Z m -182.24243,-150.99438 18.43554,-9.40571 19.08304,9.58408 c 10.49569,5.27125 20.01664,9.00709 21.15768,8.30189 2.37219,-1.46609 2.69486,-23.42074 0.66076,-44.95833 l -1.38305,-14.64406 h -40.90661 -40.90663 v 30.37288 c 0,22.91009 0.66632,30.34611 2.71187,30.26392 1.49152,-0.0599 11.00786,-4.34153 21.1474,-9.51467 z m -20.81214,-79.8679 9.81066,-17.8983 -17.81872,-1.411799 c -9.8003,-0.776488 -30.63466,-1.508692 -46.29858,-1.627119 L 134.1725,97.19322 120.31482,112.92203 c -7.62173,8.65085 -15.18296,17.43729 -16.80274,19.52543 -2.78689,3.59271 -0.083,3.79661 50.34559,3.79661 h 53.29066 z m 75.05457,16.49125 c 0,-0.77388 -4.46603,-9.60008 -9.92449,-19.61377 l -9.92449,-18.206712 -16.49829,0.630719 -16.49829,0.630719 -8.15124,15.074284 c -4.48318,8.29085 -7.66751,15.85695 -7.0763,16.81356 0.59122,0.9566 0.041,1.73927 -1.22259,1.73927 -1.26364,0 -2.29753,0.97628 -2.29753,2.1695 0,1.35867 13.37853,2.16949 35.79661,2.16949 19.68813,0 35.79661,-0.63318 35.79661,-1.40706 z m 116.80638,-2.38955 c -1.75347,-2.08814 -9.47087,-11.00889 -17.14979,-19.82389 l -13.96168,-16.02728 -45.20979,1.214473 c -24.86539,0.66796 -45.6873,1.691989 -46.27094,2.275617 -0.58363,0.58363 3.49369,8.95787 9.06069,18.60942 l 10.12183,17.54827 h 53.29891 c 50.52907,0 53.13324,-0.1973 50.11077,-3.79661 z"
     id="path5720"
     inkscape:connector-curvature="0"
     transform="scale(0.25)" />
  <path
     style="fill:#fff000;fill-opacity:0;stroke-width:1"
     d="m 123.51345,422.79185 c -44.349641,-0.6928 -81.339275,-1.96454 -82.199191,-2.82606 -2.98597,-2.99158 10.258328,-6.02681 26.298161,-6.02681 H 83.742373 V 276.17841 138.41784 l 23.322037,-25.85126 23.32203,-25.851255 125.19648,-0.184781 125.19645,-0.184781 23.95609,26.320677 23.95607,26.32069 v 137.47592 137.47593 h 13.8305 c 26.1368,0 37.37748,5.17296 16,7.36321 -18.11735,1.85622 -246.52653,2.87189 -335.00858,1.48966 z m 296.50011,-73.58381 c 0,-35.60203 -0.64581,-95.64271 -1.43514,-133.42374 L 417.1433,147.09153 H 362.17164 307.2 l -0.15252,34.16949 c -0.084,18.79322 -0.84104,35.91279 -1.68265,38.0435 -1.37405,3.47878 -3.95922,2.68268 -25.33903,-7.80316 l -23.80885,-11.67718 -23.57959,11.56863 c -12.96878,6.36275 -24.43996,11.0369 -25.49153,10.387 -1.05156,-0.64991 -1.91778,-9.6664 -1.92494,-20.03666 -0.007,-10.37026 -0.63998,-26.90925 -1.4063,-36.75332 l -1.3933,-17.8983 H 147.42082 92.420339 V 280.51525 413.93898 H 256.21695 420.01356 Z m -182.24243,-150.99438 18.43554,-9.40571 19.08304,9.58408 c 10.49569,5.27125 20.01664,9.00709 21.15768,8.30189 2.37219,-1.46609 2.69486,-23.42074 0.66076,-44.95833 l -1.38305,-14.64406 h -40.90661 -40.90663 v 30.37288 c 0,22.91009 0.66632,30.34611 2.71187,30.26392 1.49152,-0.0599 11.00786,-4.34153 21.1474,-9.51467 z m -20.81214,-79.8679 9.81066,-17.8983 -17.81872,-1.411799 c -9.8003,-0.776488 -30.63466,-1.508692 -46.29858,-1.627119 L 134.1725,97.19322 120.31482,112.92203 c -7.62173,8.65085 -15.18296,17.43729 -16.80274,19.52543 -2.78689,3.59271 -0.083,3.79661 50.34559,3.79661 h 53.29066 z m 75.05457,16.49125 c 0,-0.77388 -4.46603,-9.60008 -9.92449,-19.61377 l -9.92449,-18.206712 -16.49829,0.630719 -16.49829,0.630719 -8.15124,15.074284 c -4.48318,8.29085 -7.66751,15.85695 -7.0763,16.81356 0.59122,0.9566 0.041,1.73927 -1.22259,1.73927 -1.26364,0 -2.29753,0.97628 -2.29753,2.1695 0,1.35867 13.37853,2.16949 35.79661,2.16949 19.68813,0 35.79661,-0.63318 35.79661,-1.40706 z m 116.80638,-2.38955 c -1.75347,-2.08814 -9.47087,-11.00889 -17.14979,-19.82389 l -13.96168,-16.02728 -45.20979,1.214473 c -24.86539,0.66796 -45.6873,1.691989 -46.27094,2.275617 -0.58363,0.58363 3.49369,8.95787 9.06069,18.60942 l 10.12183,17.54827 h 53.29891 c 50.52907,0 53.13324,-0.1973 50.11077,-3.79661 z"
     id="path5722"
     inkscape:connector-curvature="0"
     transform="scale(0.25)" />
  <path
     style="fill:#fff000;fill-opacity:0;stroke-width:1"
     d="m 123.51345,422.79185 c -44.349641,-0.6928 -81.339275,-1.96454 -82.199191,-2.82606 -2.98597,-2.99158 10.258328,-6.02681 26.298161,-6.02681 H 83.742373 V 276.17841 138.41784 l 23.322037,-25.85126 23.32203,-25.851255 125.19648,-0.184781 125.19645,-0.184781 23.95609,26.320677 23.95607,26.32069 v 137.47592 137.47593 h 13.8305 c 26.1368,0 37.37748,5.17296 16,7.36321 -18.11735,1.85622 -246.52653,2.87189 -335.00858,1.48966 z m 296.50011,-73.58381 c 0,-35.60203 -0.64581,-95.64271 -1.43514,-133.42374 L 417.1433,147.09153 H 362.17164 307.2 l -0.15252,34.16949 c -0.084,18.79322 -0.84104,35.91279 -1.68265,38.0435 -1.37405,3.47878 -3.95922,2.68268 -25.33903,-7.80316 l -23.80885,-11.67718 -23.57959,11.56863 c -12.96878,6.36275 -24.43996,11.0369 -25.49153,10.387 -1.05156,-0.64991 -1.91778,-9.6664 -1.92494,-20.03666 -0.007,-10.37026 -0.63998,-26.90925 -1.4063,-36.75332 l -1.3933,-17.8983 H 147.42082 92.420339 V 280.51525 413.93898 H 256.21695 420.01356 Z m -182.24243,-150.99438 18.43554,-9.40571 19.08304,9.58408 c 10.49569,5.27125 20.01664,9.00709 21.15768,8.30189 2.37219,-1.46609 2.69486,-23.42074 0.66076,-44.95833 l -1.38305,-14.64406 h -40.90661 -40.90663 v 30.37288 c 0,22.91009 0.66632,30.34611 2.71187,30.26392 1.49152,-0.0599 11.00786,-4.34153 21.1474,-9.51467 z m -20.81214,-79.8679 9.81066,-17.8983 -17.81872,-1.411799 c -9.8003,-0.776488 -30.63466,-1.508692 -46.29858,-1.627119 L 134.1725,97.19322 120.31482,112.92203 c -7.62173,8.65085 -15.18296,17.43729 -16.80274,19.52543 -2.78689,3.59271 -0.083,3.79661 50.34559,3.79661 h 53.29066 z m 75.05457,16.49125 c 0,-0.77388 -4.46603,-9.60008 -9.92449,-19.61377 l -9.92449,-18.206712 -16.49829,0.630719 -16.49829,0.630719 -8.15124,15.074284 c -4.48318,8.29085 -7.66751,15.85695 -7.0763,16.81356 0.59122,0.9566 0.041,1.73927 -1.22259,1.73927 -1.26364,0 -2.29753,0.97628 -2.29753,2.1695 0,1.35867 13.37853,2.16949 35.79661,2.16949 19.68813,0 35.79661,-0.63318 35.79661,-1.40706 z m 116.80638,-2.38955 c -1.75347,-2.08814 -9.47087,-11.00889 -17.14979,-19.82389 l -13.96168,-16.02728 -45.20979,1.214473 c -24.86539,0.66796 -45.6873,1.691989 -46.27094,2.275617 -0.58363,0.58363 3.49369,8.95787 9.06069,18.60942 l 10.12183,17.54827 h 53.29891 c 50.52907,0 53.13324,-0.1973 50.11077,-3.79661 z"
     id="path5724"
     inkscape:connector-curvature="0"
     transform="scale(0.25)" />
  <path
     style="fill:#fff000;fill-opacity:0;stroke-width:1"
     d="m 123.51345,422.79185 c -44.349641,-0.6928 -81.339275,-1.96454 -82.199191,-2.82606 -2.98597,-2.99158 10.258328,-6.02681 26.298161,-6.02681 H 83.742373 V 276.17841 138.41784 l 23.322037,-25.85126 23.32203,-25.851255 125.19648,-0.184781 125.19645,-0.184781 23.95609,26.320677 23.95607,26.32069 v 137.47592 137.47593 h 13.8305 c 26.1368,0 37.37748,5.17296 16,7.36321 -18.11735,1.85622 -246.52653,2.87189 -335.00858,1.48966 z m 296.50011,-73.58381 c 0,-35.60203 -0.64581,-95.64271 -1.43514,-133.42374 L 417.1433,147.09153 H 362.17164 307.2 l -0.15252,34.16949 c -0.084,18.79322 -0.84104,35.91279 -1.68265,38.0435 -1.37405,3.47878 -3.95922,2.68268 -25.33903,-7.80316 l -23.80885,-11.67718 -23.57959,11.56863 c -12.96878,6.36275 -24.43996,11.0369 -25.49153,10.387 -1.05156,-0.64991 -1.91778,-9.6664 -1.92494,-20.03666 -0.007,-10.37026 -0.63998,-26.90925 -1.4063,-36.75332 l -1.3933,-17.8983 H 147.42082 92.420339 V 280.51525 413.93898 H 256.21695 420.01356 Z m -182.24243,-150.99438 18.43554,-9.40571 19.08304,9.58408 c 10.49569,5.27125 20.01664,9.00709 21.15768,8.30189 2.37219,-1.46609 2.69486,-23.42074 0.66076,-44.95833 l -1.38305,-14.64406 h -40.90661 -40.90663 v 30.37288 c 0,22.91009 0.66632,30.34611 2.71187,30.26392 1.49152,-0.0599 11.00786,-4.34153 21.1474,-9.51467 z m -20.81214,-79.8679 9.81066,-17.8983 -17.81872,-1.411799 c -9.8003,-0.776488 -30.63466,-1.508692 -46.29858,-1.627119 L 134.1725,97.19322 120.31482,112.92203 c -7.62173,8.65085 -15.18296,17.43729 -16.80274,19.52543 -2.78689,3.59271 -0.083,3.79661 50.34559,3.79661 h 53.29066 z m 75.05457,16.49125 c 0,-0.77388 -4.46603,-9.60008 -9.92449,-19.61377 l -9.92449,-18.206712 -16.49829,0.630719 -16.49829,0.630719 -8.15124,15.074284 c -4.48318,8.29085 -7.66751,15.85695 -7.0763,16.81356 0.59122,0.9566 0.041,1.73927 -1.22259,1.73927 -1.26364,0 -2.29753,0.97628 -2.29753,2.1695 0,1.35867 13.37853,2.16949 35.79661,2.16949 19.68813,0 35.79661,-0.63318 35.79661,-1.40706 z m 116.80638,-2.38955 c -1.75347,-2.08814 -9.47087,-11.00889 -17.14979,-19.82389 l -13.96168,-16.02728 -45.20979,1.214473 c -24.86539,0.66796 -45.6873,1.691989 -46.27094,2.275617 -0.58363,0.58363 3.49369,8.95787 9.06069,18.60942 l 10.12183,17.54827 h 53.29891 c 50.52907,0 53.13324,-0.1973 50.11077,-3.79661 z"
     id="path5726"
     inkscape:connector-curvature="0"
     transform="scale(0.25)" />
  <path
     style="fill:#0469b1;fill-opacity:0;stroke-width:1"
     d="m 123.51345,422.79185 c -44.349641,-0.6928 -81.339275,-1.96454 -82.199191,-2.82606 -2.98597,-2.99158 10.258328,-6.02681 26.298161,-6.02681 H 83.742373 V 276.17841 138.41784 l 23.322037,-25.85126 23.32203,-25.851255 125.19648,-0.184781 125.19645,-0.184781 23.95609,26.320677 23.95607,26.32069 v 137.47592 137.47593 h 13.8305 c 26.1368,0 37.37748,5.17296 16,7.36321 -18.11735,1.85622 -246.52653,2.87189 -335.00858,1.48966 z m 296.50011,-73.58381 c 0,-35.60203 -0.64581,-95.64271 -1.43514,-133.42374 L 417.1433,147.09153 H 362.17164 307.2 l -0.15252,34.16949 c -0.084,18.79322 -0.84104,35.91279 -1.68265,38.0435 -1.37405,3.47878 -3.95922,2.68268 -25.33903,-7.80316 l -23.80885,-11.67718 -23.57959,11.56863 c -12.96878,6.36275 -24.43996,11.0369 -25.49153,10.387 -1.05156,-0.64991 -1.91778,-9.6664 -1.92494,-20.03666 -0.007,-10.37026 -0.63998,-26.90925 -1.4063,-36.75332 l -1.3933,-17.8983 H 147.42082 92.420339 V 280.51525 413.93898 H 256.21695 420.01356 Z m -182.24243,-150.99438 18.43554,-9.40571 19.08304,9.58408 c 10.49569,5.27125 20.01664,9.00709 21.15768,8.30189 2.37219,-1.46609 2.69486,-23.42074 0.66076,-44.95833 l -1.38305,-14.64406 h -40.90661 -40.90663 v 30.37288 c 0,22.91009 0.66632,30.34611 2.71187,30.26392 1.49152,-0.0599 11.00786,-4.34153 21.1474,-9.51467 z m -20.81214,-79.8679 9.81066,-17.8983 -17.81872,-1.411799 c -9.8003,-0.776488 -30.63466,-1.508692 -46.29858,-1.627119 L 134.1725,97.19322 120.31482,112.92203 c -7.62173,8.65085 -15.18296,17.43729 -16.80274,19.52543 -2.78689,3.59271 -0.083,3.79661 50.34559,3.79661 h 53.29066 z m 75.05457,16.49125 c 0,-0.77388 -4.46603,-9.60008 -9.92449,-19.61377 l -9.92449,-18.206712 -16.49829,0.630719 -16.49829,0.630719 -8.15124,15.074284 c -4.48318,8.29085 -7.66751,15.85695 -7.0763,16.81356 0.59122,0.9566 0.041,1.73927 -1.22259,1.73927 -1.26364,0 -2.29753,0.97628 -2.29753,2.1695 0,1.35867 13.37853,2.16949 35.79661,2.16949 19.68813,0 35.79661,-0.63318 35.79661,-1.40706 z m 116.80638,-2.38955 c -1.75347,-2.08814 -9.47087,-11.00889 -17.14979,-19.82389 l -13.96168,-16.02728 -45.20979,1.214473 c -24.86539,0.66796 -45.6873,1.691989 -46.27094,2.275617 -0.58363,0.58363 3.49369,8.95787 9.06069,18.60942 l 10.12183,17.54827 h 53.29891 c 50.52907,0 53.13324,-0.1973 50.11077,-3.79661 z"
     id="path5728"
     inkscape:connector-curvature="0"
     transform="scale(0.25)" />
  <path
     style="fill:#0469b1;fill-opacity:0;stroke-width:1"
     d="m 123.51345,422.79185 c -44.349641,-0.6928 -81.339275,-1.96454 -82.199191,-2.82606 -2.98597,-2.99158 10.258328,-6.02681 26.298161,-6.02681 H 83.742373 V 276.17841 138.41784 l 23.322037,-25.85126 23.32203,-25.851255 125.19648,-0.184781 125.19645,-0.184781 23.95609,26.320677 23.95607,26.32069 v 137.47592 137.47593 h 13.8305 c 26.1368,0 37.37748,5.17296 16,7.36321 -18.11735,1.85622 -246.52653,2.87189 -335.00858,1.48966 z m 296.50011,-73.58381 c 0,-35.60203 -0.64581,-95.64271 -1.43514,-133.42374 L 417.1433,147.09153 H 362.17164 307.2 l -0.15252,34.16949 c -0.084,18.79322 -0.84104,35.91279 -1.68265,38.0435 -1.37405,3.47878 -3.95922,2.68268 -25.33903,-7.80316 l -23.80885,-11.67718 -23.57959,11.56863 c -12.96878,6.36275 -24.43996,11.0369 -25.49153,10.387 -1.05156,-0.64991 -1.91778,-9.6664 -1.92494,-20.03666 -0.007,-10.37026 -0.63998,-26.90925 -1.4063,-36.75332 l -1.3933,-17.8983 H 147.42082 92.420339 V 280.51525 413.93898 H 256.21695 420.01356 Z m -182.24243,-150.99438 18.43554,-9.40571 19.08304,9.58408 c 10.49569,5.27125 20.01664,9.00709 21.15768,8.30189 2.37219,-1.46609 2.69486,-23.42074 0.66076,-44.95833 l -1.38305,-14.64406 h -40.90661 -40.90663 v 30.37288 c 0,22.91009 0.66632,30.34611 2.71187,30.26392 1.49152,-0.0599 11.00786,-4.34153 21.1474,-9.51467 z m -20.81214,-79.8679 9.81066,-17.8983 -17.81872,-1.411799 c -9.8003,-0.776488 -30.63466,-1.508692 -46.29858,-1.627119 L 134.1725,97.19322 120.31482,112.92203 c -7.62173,8.65085 -15.18296,17.43729 -16.80274,19.52543 -2.78689,3.59271 -0.083,3.79661 50.34559,3.79661 h 53.29066 z m 75.05457,16.49125 c 0,-0.77388 -4.46603,-9.60008 -9.92449,-19.61377 l -9.92449,-18.206712 -16.49829,0.630719 -16.49829,0.630719 -8.15124,15.074284 c -4.48318,8.29085 -7.66751,15.85695 -7.0763,16.81356 0.59122,0.9566 0.041,1.73927 -1.22259,1.73927 -1.26364,0 -2.29753,0.97628 -2.29753,2.1695 0,1.35867 13.37853,2.16949 35.79661,2.16949 19.68813,0 35.79661,-0.63318 35.79661,-1.40706 z m 116.80638,-2.38955 c -1.75347,-2.08814 -9.47087,-11.00889 -17.14979,-19.82389 l -13.96168,-16.02728 -45.20979,1.214473 c -24.86539,0.66796 -45.6873,1.691989 -46.27094,2.275617 -0.58363,0.58363 3.49369,8.95787 9.06069,18.60942 l 10.12183,17.54827 h 53.29891 c 50.52907,0 53.13324,-0.1973 50.11077,-3.79661 z"
     id="path5730"
     inkscape:connector-curvature="0"
     transform="scale(0.25)" />
  <path
     style="fill:#0469b1;fill-opacity:0;stroke-width:1"
     d="m 123.51345,422.79185 c -44.349641,-0.6928 -81.339275,-1.96454 -82.199191,-2.82606 -2.98597,-2.99158 10.258328,-6.02681 26.298161,-6.02681 H 83.742373 V 276.17841 138.41784 l 23.322037,-25.85126 23.32203,-25.851255 125.19648,-0.184781 125.19645,-0.184781 23.95609,26.320677 23.95607,26.32069 v 137.47592 137.47593 h 13.8305 c 26.1368,0 37.37748,5.17296 16,7.36321 -18.11735,1.85622 -246.52653,2.87189 -335.00858,1.48966 z m 296.50011,-73.58381 c 0,-35.60203 -0.64581,-95.64271 -1.43514,-133.42374 L 417.1433,147.09153 H 362.17164 307.2 l -0.15252,34.16949 c -0.084,18.79322 -0.84104,35.91279 -1.68265,38.0435 -1.37405,3.47878 -3.95922,2.68268 -25.33903,-7.80316 l -23.80885,-11.67718 -23.57959,11.56863 c -12.96878,6.36275 -24.43996,11.0369 -25.49153,10.387 -1.05156,-0.64991 -1.91778,-9.6664 -1.92494,-20.03666 -0.007,-10.37026 -0.63998,-26.90925 -1.4063,-36.75332 l -1.3933,-17.8983 H 147.42082 92.420339 V 280.51525 413.93898 H 256.21695 420.01356 Z m -182.24243,-150.99438 18.43554,-9.40571 19.08304,9.58408 c 10.49569,5.27125 20.01664,9.00709 21.15768,8.30189 2.37219,-1.46609 2.69486,-23.42074 0.66076,-44.95833 l -1.38305,-14.64406 h -40.90661 -40.90663 v 30.37288 c 0,22.91009 0.66632,30.34611 2.71187,30.26392 1.49152,-0.0599 11.00786,-4.34153 21.1474,-9.51467 z m -20.81214,-79.8679 9.81066,-17.8983 -17.81872,-1.411799 c -9.8003,-0.776488 -30.63466,-1.508692 -46.29858,-1.627119 L 134.1725,97.19322 120.31482,112.92203 c -7.62173,8.65085 -15.18296,17.43729 -16.80274,19.52543 -2.78689,3.59271 -0.083,3.79661 50.34559,3.79661 h 53.29066 z m 75.05457,16.49125 c 0,-0.77388 -4.46603,-9.60008 -9.92449,-19.61377 l -9.92449,-18.206712 -16.49829,0.630719 -16.49829,0.630719 -8.15124,15.074284 c -4.48318,8.29085 -7.66751,15.85695 -7.0763,16.81356 0.59122,0.9566 0.041,1.73927 -1.22259,1.73927 -1.26364,0 -2.29753,0.97628 -2.29753,2.1695 0,1.35867 13.37853,2.16949 35.79661,2.16949 19.68813,0 35.79661,-0.63318 35.79661,-1.40706 z m 116.80638,-2.38955 c -1.75347,-2.08814 -9.47087,-11.00889 -17.14979,-19.82389 l -13.96168,-16.02728 -45.20979,1.214473 c -24.86539,0.66796 -45.6873,1.691989 -46.27094,2.275617 -0.58363,0.58363 3.49369,8.95787 9.06069,18.60942 l 10.12183,17.54827 h 53.29891 c 50.52907,0 53.13324,-0.1973 50.11077,-3.79661 z"
     id="path5732"
     inkscape:connector-curvature="0"
     transform="scale(0.25)" />
  <path
     style="fill:#0469b1;fill-opacity:0;stroke-width:1"
     d="m 416.69377,280.51525 c 2.7e-4,-72.78644 0.27341,-102.24841 0.60698,-65.47105 0.33356,36.77736 0.33334,96.32991 -5e-4,132.33899 -0.33384,36.00907 -0.60675,5.9185 -0.60648,-66.86794 z"
     id="path5734"
     inkscape:connector-curvature="0"
     transform="scale(0.25)" />
  <path
     style="fill:#0469b1;fill-opacity:0;stroke-width:1"
     d="m 416.69377,280.51525 c 2.7e-4,-72.78644 0.27341,-102.24841 0.60698,-65.47105 0.33356,36.77736 0.33334,96.32991 -5e-4,132.33899 -0.33384,36.00907 -0.60675,5.9185 -0.60648,-66.86794 z"
     id="path5736"
     inkscape:connector-curvature="0"
     transform="scale(0.25)" />
  <path
     style="fill:#0469b1;fill-opacity:0;stroke-width:1"
     d="m 123.51345,422.79185 c -44.349641,-0.6928 -81.339275,-1.96454 -82.199191,-2.82606 -2.98597,-2.99158 10.258328,-6.02681 26.298161,-6.02681 H 83.742373 V 276.17841 138.41784 l 23.322037,-25.85126 23.32203,-25.851255 125.19648,-0.184781 125.19645,-0.184781 23.95609,26.320677 23.95607,26.32069 v 137.47592 137.47593 h 13.8305 c 26.1368,0 37.37748,5.17296 16,7.36321 -18.11735,1.85622 -246.52653,2.87189 -335.00858,1.48966 z m 296.50011,-73.58381 c 0,-35.60203 -0.64581,-95.64271 -1.43514,-133.42374 L 417.1433,147.09153 H 362.17164 307.2 l -0.15252,34.16949 c -0.084,18.79322 -0.84104,35.91279 -1.68265,38.0435 -1.37405,3.47878 -3.95922,2.68268 -25.33903,-7.80316 l -23.80885,-11.67718 -23.57959,11.56863 c -12.96878,6.36275 -24.43996,11.0369 -25.49153,10.387 -1.05156,-0.64991 -1.91778,-9.6664 -1.92494,-20.03666 -0.007,-10.37026 -0.63998,-26.90925 -1.4063,-36.75332 l -1.3933,-17.8983 H 147.42082 92.420339 V 280.51525 413.93898 H 256.21695 420.01356 Z m -182.24243,-150.99438 18.43554,-9.40571 19.08304,9.58408 c 10.49569,5.27125 20.01664,9.00709 21.15768,8.30189 2.37219,-1.46609 2.69486,-23.42074 0.66076,-44.95833 l -1.38305,-14.64406 h -40.90661 -40.90663 v 30.37288 c 0,22.91009 0.66632,30.34611 2.71187,30.26392 1.49152,-0.0599 11.00786,-4.34153 21.1474,-9.51467 z m -20.81214,-79.8679 9.81066,-17.8983 -17.81872,-1.411799 c -9.8003,-0.776488 -30.63466,-1.508692 -46.29858,-1.627119 L 134.1725,97.19322 120.31482,112.92203 c -7.62173,8.65085 -15.18296,17.43729 -16.80274,19.52543 -2.78689,3.59271 -0.083,3.79661 50.34559,3.79661 h 53.29066 z m 75.05457,16.49125 c 0,-0.77388 -4.46603,-9.60008 -9.92449,-19.61377 l -9.92449,-18.206712 -16.49829,0.630719 -16.49829,0.630719 -8.15124,15.074284 c -4.48318,8.29085 -7.66751,15.85695 -7.0763,16.81356 0.59122,0.9566 0.041,1.73927 -1.22259,1.73927 -1.26364,0 -2.29753,0.97628 -2.29753,2.1695 0,1.35867 13.37853,2.16949 35.79661,2.16949 19.68813,0 35.79661,-0.63318 35.79661,-1.40706 z m 116.80638,-2.38955 c -1.75347,-2.08814 -9.47087,-11.00889 -17.14979,-19.82389 l -13.96168,-16.02728 -45.20979,1.214473 c -24.86539,0.66796 -45.6873,1.691989 -46.27094,2.275617 -0.58363,0.58363 3.49369,8.95787 9.06069,18.60942 l 10.12183,17.54827 h 53.29891 c 50.52907,0 53.13324,-0.1973 50.11077,-3.79661 z"
     id="path5738"
     inkscape:connector-curvature="0"
     transform="scale(0.25)" />
  <path
     style="fill:#0469b1;fill-opacity:0;stroke-width:1"
     d="m 123.51345,422.79185 c -44.349641,-0.6928 -81.339275,-1.96454 -82.199191,-2.82606 -2.98597,-2.99158 10.258328,-6.02681 26.298161,-6.02681 H 83.742373 V 276.17841 138.41784 l 23.322037,-25.85126 23.32203,-25.851255 125.19648,-0.184781 125.19645,-0.184781 23.95609,26.320677 23.95607,26.32069 v 137.47592 137.47593 h 13.8305 c 26.1368,0 37.37748,5.17296 16,7.36321 -18.11735,1.85622 -246.52653,2.87189 -335.00858,1.48966 z m 296.50011,-73.58381 c 0,-35.60203 -0.64581,-95.64271 -1.43514,-133.42374 L 417.1433,147.09153 H 362.17164 307.2 l -0.15252,34.16949 c -0.084,18.79322 -0.84104,35.91279 -1.68265,38.0435 -1.37405,3.47878 -3.95922,2.68268 -25.33903,-7.80316 l -23.80885,-11.67718 -23.57959,11.56863 c -12.96878,6.36275 -24.43996,11.0369 -25.49153,10.387 -1.05156,-0.64991 -1.91778,-9.6664 -1.92494,-20.03666 -0.007,-10.37026 -0.63998,-26.90925 -1.4063,-36.75332 l -1.3933,-17.8983 H 147.42082 92.420339 V 280.51525 413.93898 H 256.21695 420.01356 Z m -182.24243,-150.99438 18.43554,-9.40571 19.08304,9.58408 c 10.49569,5.27125 20.01664,9.00709 21.15768,8.30189 2.37219,-1.46609 2.69486,-23.42074 0.66076,-44.95833 l -1.38305,-14.64406 h -40.90661 -40.90663 v 30.37288 c 0,22.91009 0.66632,30.34611 2.71187,30.26392 1.49152,-0.0599 11.00786,-4.34153 21.1474,-9.51467 z m -20.81214,-79.8679 9.81066,-17.8983 -17.81872,-1.411799 c -9.8003,-0.776488 -30.63466,-1.508692 -46.29858,-1.627119 L 134.1725,97.19322 120.31482,112.92203 c -7.62173,8.65085 -15.18296,17.43729 -16.80274,19.52543 -2.78689,3.59271 -0.083,3.79661 50.34559,3.79661 h 53.29066 z m 75.05457,16.49125 c 0,-0.77388 -4.46603,-9.60008 -9.92449,-19.61377 l -9.92449,-18.206712 -16.49829,0.630719 -16.49829,0.630719 -8.15124,15.074284 c -4.48318,8.29085 -7.66751,15.85695 -7.0763,16.81356 0.59122,0.9566 0.041,1.73927 -1.22259,1.73927 -1.26364,0 -2.29753,0.97628 -2.29753,2.1695 0,1.35867 13.37853,2.16949 35.79661,2.16949 19.68813,0 35.79661,-0.63318 35.79661,-1.40706 z m 116.80638,-2.38955 c -1.75347,-2.08814 -9.47087,-11.00889 -17.14979,-19.82389 l -13.96168,-16.02728 -45.20979,1.214473 c -24.86539,0.66796 -45.6873,1.691989 -46.27094,2.275617 -0.58363,0.58363 3.49369,8.95787 9.06069,18.60942 l 10.12183,17.54827 h 53.29891 c 50.52907,0 53.13324,-0.1973 50.11077,-3.79661 z"
     id="path5740"
     inkscape:connector-curvature="0"
     transform="scale(0.25)" />
  <path
     style="fill:#0469b1;fill-opacity:0;stroke-width:1"
     d="m 123.51345,422.79185 c -44.349641,-0.6928 -81.339275,-1.96454 -82.199191,-2.82606 -2.98597,-2.99158 10.258328,-6.02681 26.298161,-6.02681 H 83.742373 V 276.17841 138.41784 l 23.322037,-25.85126 23.32203,-25.851255 125.19648,-0.184781 125.19645,-0.184781 23.95609,26.320677 23.95607,26.32069 v 137.47592 137.47593 h 13.8305 c 26.1368,0 37.37748,5.17296 16,7.36321 -18.11735,1.85622 -246.52653,2.87189 -335.00858,1.48966 z m 296.50011,-73.58381 c 0,-35.60203 -0.64581,-95.64271 -1.43514,-133.42374 L 417.1433,147.09153 H 362.17164 307.2 l -0.15252,34.16949 c -0.084,18.79322 -0.84104,35.91279 -1.68265,38.0435 -1.37405,3.47878 -3.95922,2.68268 -25.33903,-7.80316 l -23.80885,-11.67718 -23.57959,11.56863 c -12.96878,6.36275 -24.43996,11.0369 -25.49153,10.387 -1.05156,-0.64991 -1.91778,-9.6664 -1.92494,-20.03666 -0.007,-10.37026 -0.63998,-26.90925 -1.4063,-36.75332 l -1.3933,-17.8983 H 147.42082 92.420339 V 280.51525 413.93898 H 256.21695 420.01356 Z m -182.24243,-150.99438 18.43554,-9.40571 19.08304,9.58408 c 10.49569,5.27125 20.01664,9.00709 21.15768,8.30189 2.37219,-1.46609 2.69486,-23.42074 0.66076,-44.95833 l -1.38305,-14.64406 h -40.90661 -40.90663 v 30.37288 c 0,22.91009 0.66632,30.34611 2.71187,30.26392 1.49152,-0.0599 11.00786,-4.34153 21.1474,-9.51467 z m -20.81214,-79.8679 9.81066,-17.8983 -17.81872,-1.411799 c -9.8003,-0.776488 -30.63466,-1.508692 -46.29858,-1.627119 L 134.1725,97.19322 120.31482,112.92203 c -7.62173,8.65085 -15.18296,17.43729 -16.80274,19.52543 -2.78689,3.59271 -0.083,3.79661 50.34559,3.79661 h 53.29066 z m 75.05457,16.49125 c 0,-0.77388 -4.46603,-9.60008 -9.92449,-19.61377 l -9.92449,-18.206712 -16.49829,0.630719 -16.49829,0.630719 -8.15124,15.074284 c -4.48318,8.29085 -7.66751,15.85695 -7.0763,16.81356 0.59122,0.9566 0.041,1.73927 -1.22259,1.73927 -1.26364,0 -2.29753,0.97628 -2.29753,2.1695 0,1.35867 13.37853,2.16949 35.79661,2.16949 19.68813,0 35.79661,-0.63318 35.79661,-1.40706 z m 116.80638,-2.38955 c -1.75347,-2.08814 -9.47087,-11.00889 -17.14979,-19.82389 l -13.96168,-16.02728 -45.20979,1.214473 c -24.86539,0.66796 -45.6873,1.691989 -46.27094,2.275617 -0.58363,0.58363 3.49369,8.95787 9.06069,18.60942 l 10.12183,17.54827 h 53.29891 c 50.52907,0 53.13324,-0.1973 50.11077,-3.79661 z"
     id="path5742"
     inkscape:connector-curvature="0"
     transform="scale(0.25)" />
  <path
     style="fill:#0469b1;fill-opacity:0;stroke-width:1"
     d="m 123.51345,422.79185 c -44.349641,-0.6928 -81.339275,-1.96454 -82.199191,-2.82606 -2.98597,-2.99158 10.258328,-6.02681 26.298161,-6.02681 H 83.742373 V 276.17841 138.41784 l 23.322037,-25.85126 23.32203,-25.851255 125.19648,-0.184781 125.19645,-0.184781 23.95609,26.320677 23.95607,26.32069 v 137.47592 137.47593 h 13.8305 c 26.1368,0 37.37748,5.17296 16,7.36321 -18.11735,1.85622 -246.52653,2.87189 -335.00858,1.48966 z m 296.50011,-73.58381 c 0,-35.60203 -0.64581,-95.64271 -1.43514,-133.42374 L 417.1433,147.09153 H 362.17164 307.2 l -0.15252,34.16949 c -0.084,18.79322 -0.84104,35.91279 -1.68265,38.0435 -1.37405,3.47878 -3.95922,2.68268 -25.33903,-7.80316 l -23.80885,-11.67718 -23.57959,11.56863 c -12.96878,6.36275 -24.43996,11.0369 -25.49153,10.387 -1.05156,-0.64991 -1.91778,-9.6664 -1.92494,-20.03666 -0.007,-10.37026 -0.63998,-26.90925 -1.4063,-36.75332 l -1.3933,-17.8983 H 147.42082 92.420339 V 280.51525 413.93898 H 256.21695 420.01356 Z m -182.24243,-150.99438 18.43554,-9.40571 19.08304,9.58408 c 10.49569,5.27125 20.01664,9.00709 21.15768,8.30189 2.37219,-1.46609 2.69486,-23.42074 0.66076,-44.95833 l -1.38305,-14.64406 h -40.90661 -40.90663 v 30.37288 c 0,22.91009 0.66632,30.34611 2.71187,30.26392 1.49152,-0.0599 11.00786,-4.34153 21.1474,-9.51467 z m -20.81214,-79.8679 9.81066,-17.8983 -17.81872,-1.411799 c -9.8003,-0.776488 -30.63466,-1.508692 -46.29858,-1.627119 L 134.1725,97.19322 120.31482,112.92203 c -7.62173,8.65085 -15.18296,17.43729 -16.80274,19.52543 -2.78689,3.59271 -0.083,3.79661 50.34559,3.79661 h 53.29066 z m 75.05457,16.49125 c 0,-0.77388 -4.46603,-9.60008 -9.92449,-19.61377 l -9.92449,-18.206712 -16.49829,0.630719 -16.49829,0.630719 -8.15124,15.074284 c -4.48318,8.29085 -7.66751,15.85695 -7.0763,16.81356 0.59122,0.9566 0.041,1.73927 -1.22259,1.73927 -1.26364,0 -2.29753,0.97628 -2.29753,2.1695 0,1.35867 13.37853,2.16949 35.79661,2.16949 19.68813,0 35.79661,-0.63318 35.79661,-1.40706 z m 116.80638,-2.38955 c -1.75347,-2.08814 -9.47087,-11.00889 -17.14979,-19.82389 l -13.96168,-16.02728 -45.20979,1.214473 c -24.86539,0.66796 -45.6873,1.691989 -46.27094,2.275617 -0.58363,0.58363 3.49369,8.95787 9.06069,18.60942 l 10.12183,17.54827 h 53.29891 c 50.52907,0 53.13324,-0.1973 50.11077,-3.79661 z"
     id="path5744"
     inkscape:connector-curvature="0"
     transform="scale(0.25)" />
  <path
     style="fill:#0469b1;fill-opacity:0;stroke-width:1"
     d="m 123.51345,422.79185 c -44.349641,-0.6928 -81.339275,-1.96454 -82.199191,-2.82606 -2.98597,-2.99158 10.258328,-6.02681 26.298161,-6.02681 H 83.742373 V 276.17841 138.41784 l 23.322037,-25.85126 23.32203,-25.851255 125.19648,-0.184781 125.19645,-0.184781 23.95609,26.320677 23.95607,26.32069 v 137.47592 137.47593 h 13.8305 c 26.1368,0 37.37748,5.17296 16,7.36321 -18.11735,1.85622 -246.52653,2.87189 -335.00858,1.48966 z m 296.50011,-73.58381 c 0,-35.60203 -0.64581,-95.64271 -1.43514,-133.42374 L 417.1433,147.09153 H 362.17164 307.2 l -0.15252,34.16949 c -0.084,18.79322 -0.84104,35.91279 -1.68265,38.0435 -1.37405,3.47878 -3.95922,2.68268 -25.33903,-7.80316 l -23.80885,-11.67718 -23.57959,11.56863 c -12.96878,6.36275 -24.43996,11.0369 -25.49153,10.387 -1.05156,-0.64991 -1.91778,-9.6664 -1.92494,-20.03666 -0.007,-10.37026 -0.63998,-26.90925 -1.4063,-36.75332 l -1.3933,-17.8983 H 147.42082 92.420339 V 280.51525 413.93898 H 256.21695 420.01356 Z m -182.24243,-150.99438 18.43554,-9.40571 19.08304,9.58408 c 10.49569,5.27125 20.01664,9.00709 21.15768,8.30189 2.37219,-1.46609 2.69486,-23.42074 0.66076,-44.95833 l -1.38305,-14.64406 h -40.90661 -40.90663 v 30.37288 c 0,22.91009 0.66632,30.34611 2.71187,30.26392 1.49152,-0.0599 11.00786,-4.34153 21.1474,-9.51467 z m -20.81214,-79.8679 9.81066,-17.8983 -17.81872,-1.411799 c -9.8003,-0.776488 -30.63466,-1.508692 -46.29858,-1.627119 L 134.1725,97.19322 120.31482,112.92203 c -7.62173,8.65085 -15.18296,17.43729 -16.80274,19.52543 -2.78689,3.59271 -0.083,3.79661 50.34559,3.79661 h 53.29066 z m 75.05457,16.49125 c 0,-0.77388 -4.46603,-9.60008 -9.92449,-19.61377 l -9.92449,-18.206712 -16.49829,0.630719 -16.49829,0.630719 -8.15124,15.074284 c -4.48318,8.29085 -7.66751,15.85695 -7.0763,16.81356 0.59122,0.9566 0.041,1.73927 -1.22259,1.73927 -1.26364,0 -2.29753,0.97628 -2.29753,2.1695 0,1.35867 13.37853,2.16949 35.79661,2.16949 19.68813,0 35.79661,-0.63318 35.79661,-1.40706 z m 116.80638,-2.38955 c -1.75347,-2.08814 -9.47087,-11.00889 -17.14979,-19.82389 l -13.96168,-16.02728 -45.20979,1.214473 c -24.86539,0.66796 -45.6873,1.691989 -46.27094,2.275617 -0.58363,0.58363 3.49369,8.95787 9.06069,18.60942 l 10.12183,17.54827 h 53.29891 c 50.52907,0 53.13324,-0.1973 50.11077,-3.79661 z"
     id="path5746"
     inkscape:connector-curvature="0"
     transform="scale(0.25)" />
  <path
     style="fill:#0469b1;fill-opacity:0;stroke-width:1"
     d="m 123.51345,422.79185 c -44.349641,-0.6928 -81.339275,-1.96454 -82.199191,-2.82606 -2.98597,-2.99158 10.258328,-6.02681 26.298161,-6.02681 H 83.742373 V 276.17841 138.41784 l 23.322037,-25.85126 23.32203,-25.851255 125.19648,-0.184781 125.19645,-0.184781 23.95609,26.320677 23.95607,26.32069 v 137.47592 137.47593 h 13.8305 c 26.1368,0 37.37748,5.17296 16,7.36321 -18.11735,1.85622 -246.52653,2.87189 -335.00858,1.48966 z m 296.50011,-73.58381 c 0,-35.60203 -0.64581,-95.64271 -1.43514,-133.42374 L 417.1433,147.09153 H 362.17164 307.2 l -0.15252,34.16949 c -0.084,18.79322 -0.84104,35.91279 -1.68265,38.0435 -1.37405,3.47878 -3.95922,2.68268 -25.33903,-7.80316 l -23.80885,-11.67718 -23.57959,11.56863 c -12.96878,6.36275 -24.43996,11.0369 -25.49153,10.387 -1.05156,-0.64991 -1.91778,-9.6664 -1.92494,-20.03666 -0.007,-10.37026 -0.63998,-26.90925 -1.4063,-36.75332 l -1.3933,-17.8983 H 147.42082 92.420339 V 280.51525 413.93898 H 256.21695 420.01356 Z m -182.24243,-150.99438 18.43554,-9.40571 19.08304,9.58408 c 10.49569,5.27125 20.01664,9.00709 21.15768,8.30189 2.37219,-1.46609 2.69486,-23.42074 0.66076,-44.95833 l -1.38305,-14.64406 h -40.90661 -40.90663 v 30.37288 c 0,22.91009 0.66632,30.34611 2.71187,30.26392 1.49152,-0.0599 11.00786,-4.34153 21.1474,-9.51467 z m -20.81214,-79.8679 9.81066,-17.8983 -17.81872,-1.411799 c -9.8003,-0.776488 -30.63466,-1.508692 -46.29858,-1.627119 L 134.1725,97.19322 120.31482,112.92203 c -7.62173,8.65085 -15.18296,17.43729 -16.80274,19.52543 -2.78689,3.59271 -0.083,3.79661 50.34559,3.79661 h 53.29066 z m 75.05457,16.49125 c 0,-0.77388 -4.46603,-9.60008 -9.92449,-19.61377 l -9.92449,-18.206712 -16.49829,0.630719 -16.49829,0.630719 -8.15124,15.074284 c -4.48318,8.29085 -7.66751,15.85695 -7.0763,16.81356 0.59122,0.9566 0.041,1.73927 -1.22259,1.73927 -1.26364,0 -2.29753,0.97628 -2.29753,2.1695 0,1.35867 13.37853,2.16949 35.79661,2.16949 19.68813,0 35.79661,-0.63318 35.79661,-1.40706 z m 116.80638,-2.38955 c -1.75347,-2.08814 -9.47087,-11.00889 -17.14979,-19.82389 l -13.96168,-16.02728 -45.20979,1.214473 c -24.86539,0.66796 -45.6873,1.691989 -46.27094,2.275617 -0.58363,0.58363 3.49369,8.95787 9.06069,18.60942 l 10.12183,17.54827 h 53.29891 c 50.52907,0 53.13324,-0.1973 50.11077,-3.79661 z"
     id="path5748"
     inkscape:connector-curvature="0"
     transform="scale(0.25)" />
  <path
     style="fill:#0469b1;fill-opacity:0;stroke-width:1"
     d="m 123.51345,422.79185 c -44.349641,-0.6928 -81.339275,-1.96454 -82.199191,-2.82606 -2.98597,-2.99158 10.258328,-6.02681 26.298161,-6.02681 H 83.742373 V 276.17841 138.41784 l 23.322037,-25.85126 23.32203,-25.851255 125.19648,-0.184781 125.19645,-0.184781 23.95609,26.320677 23.95607,26.32069 v 137.47592 137.47593 h 13.8305 c 26.1368,0 37.37748,5.17296 16,7.36321 -18.11735,1.85622 -246.52653,2.87189 -335.00858,1.48966 z m 296.50011,-73.58381 c 0,-35.60203 -0.64581,-95.64271 -1.43514,-133.42374 L 417.1433,147.09153 H 362.17164 307.2 l -0.15252,34.16949 c -0.084,18.79322 -0.84104,35.91279 -1.68265,38.0435 -1.37405,3.47878 -3.95922,2.68268 -25.33903,-7.80316 l -23.80885,-11.67718 -23.57959,11.56863 c -12.96878,6.36275 -24.43996,11.0369 -25.49153,10.387 -1.05156,-0.64991 -1.91778,-9.6664 -1.92494,-20.03666 -0.007,-10.37026 -0.63998,-26.90925 -1.4063,-36.75332 l -1.3933,-17.8983 H 147.42082 92.420339 V 280.51525 413.93898 H 256.21695 420.01356 Z m -182.24243,-150.99438 18.43554,-9.40571 19.08304,9.58408 c 10.49569,5.27125 20.01664,9.00709 21.15768,8.30189 2.37219,-1.46609 2.69486,-23.42074 0.66076,-44.95833 l -1.38305,-14.64406 h -40.90661 -40.90663 v 30.37288 c 0,22.91009 0.66632,30.34611 2.71187,30.26392 1.49152,-0.0599 11.00786,-4.34153 21.1474,-9.51467 z m -20.81214,-79.8679 9.81066,-17.8983 -17.81872,-1.411799 c -9.8003,-0.776488 -30.63466,-1.508692 -46.29858,-1.627119 L 134.1725,97.19322 120.31482,112.92203 c -7.62173,8.65085 -15.18296,17.43729 -16.80274,19.52543 -2.78689,3.59271 -0.083,3.79661 50.34559,3.79661 h 53.29066 z m 75.05457,16.49125 c 0,-0.77388 -4.46603,-9.60008 -9.92449,-19.61377 l -9.92449,-18.206712 -16.49829,0.630719 -16.49829,0.630719 -8.15124,15.074284 c -4.48318,8.29085 -7.66751,15.85695 -7.0763,16.81356 0.59122,0.9566 0.041,1.73927 -1.22259,1.73927 -1.26364,0 -2.29753,0.97628 -2.29753,2.1695 0,1.35867 13.37853,2.16949 35.79661,2.16949 19.68813,0 35.79661,-0.63318 35.79661,-1.40706 z m 116.80638,-2.38955 c -1.75347,-2.08814 -9.47087,-11.00889 -17.14979,-19.82389 l -13.96168,-16.02728 -45.20979,1.214473 c -24.86539,0.66796 -45.6873,1.691989 -46.27094,2.275617 -0.58363,0.58363 3.49369,8.95787 9.06069,18.60942 l 10.12183,17.54827 h 53.29891 c 50.52907,0 53.13324,-0.1973 50.11077,-3.79661 z"
     id="path5750"
     inkscape:connector-curvature="0"
     transform="scale(0.25)" />
  <path
     style="fill:#ffffff;fill-opacity:1;stroke-width:1"
     d="m 123.51345,422.79185 c -44.349641,-0.6928 -81.339275,-1.96454 -82.199191,-2.82606 -2.98597,-2.99158 10.258328,-6.02681 26.298161,-6.02681 H 83.742373 V 276.17841 138.41784 l 23.322037,-25.85126 23.32203,-25.851255 125.19648,-0.184781 125.19645,-0.184781 23.95609,26.320677 23.95607,26.32069 v 137.47592 137.47593 h 13.8305 c 26.1368,0 37.37748,5.17296 16,7.36321 -18.11735,1.85622 -246.52653,2.87189 -335.00858,1.48966 z m 296.50011,-73.58381 c 0,-35.60203 -0.64581,-95.64271 -1.43514,-133.42374 L 417.1433,147.09153 H 362.17164 307.2 l -0.15252,34.16949 c -0.084,18.79322 -0.84104,35.91279 -1.68265,38.0435 -1.37405,3.47878 -3.95922,2.68268 -25.33903,-7.80316 l -23.80885,-11.67718 -23.57959,11.56863 c -12.96878,6.36275 -24.43996,11.0369 -25.49153,10.387 -1.05156,-0.64991 -1.91778,-9.6664 -1.92494,-20.03666 -0.007,-10.37026 -0.63998,-26.90925 -1.4063,-36.75332 l -1.3933,-17.8983 H 147.42082 92.420339 V 280.51525 413.93898 H 256.21695 420.01356 Z m -182.24243,-150.99438 18.43554,-9.40571 19.08304,9.58408 c 10.49569,5.27125 20.01664,9.00709 21.15768,8.30189 2.37219,-1.46609 2.69486,-23.42074 0.66076,-44.95833 l -1.38305,-14.64406 h -40.90661 -40.90663 v 30.37288 c 0,22.91009 0.66632,30.34611 2.71187,30.26392 1.49152,-0.0599 11.00786,-4.34153 21.1474,-9.51467 z m -20.81214,-79.8679 9.81066,-17.8983 -17.81872,-1.411799 c -9.8003,-0.776488 -30.63466,-1.508692 -46.29858,-1.627119 L 134.1725,97.19322 120.31482,112.92203 c -7.62173,8.65085 -15.18296,17.43729 -16.80274,19.52543 -2.78689,3.59271 -0.083,3.79661 50.34559,3.79661 h 53.29066 z m 75.05457,16.49125 c 0,-0.77388 -4.46603,-9.60008 -9.92449,-19.61377 l -9.92449,-18.206712 -16.49829,0.630719 -16.49829,0.630719 -8.15124,15.074284 c -4.48318,8.29085 -7.66751,15.85695 -7.0763,16.81356 0.59122,0.9566 0.041,1.73927 -1.22259,1.73927 -1.26364,0 -2.29753,0.97628 -2.29753,2.1695 0,1.35867 13.37853,2.16949 35.79661,2.16949 19.68813,0 35.79661,-0.63318 35.79661,-1.40706 z m 116.80638,-2.38955 c -1.75347,-2.08814 -9.47087,-11.00889 -17.14979,-19.82389 l -13.96168,-16.02728 -45.20979,1.214473 c -24.86539,0.66796 -45.6873,1.691989 -46.27094,2.275617 -0.58363,0.58363 3.49369,8.95787 9.06069,18.60942 l 10.12183,17.54827 h 53.29891 c 50.52907,0 53.13324,-0.1973 50.11077,-3.79661 z"
     id="path5752"
     inkscape:connector-curvature="0"
     transform="scale(0.25)" />
  <path
     style="fill:#ffffff;fill-opacity:1;stroke-width:1"
     d="m 76.691525,421.11022 c -17.6,-0.42833 -32,-1.62528 -32,-2.65993 0,-1.03465 8.786441,-2.5766 19.525424,-3.42656 l 19.525424,-1.54537 0.0742,-136.99003 0.07418,-136.99002 22.655267,-25.1387 22.65527,-25.138694 79.77902,-1.434373 c 43.87846,-0.788905 100.28071,-1.420412 125.33833,-1.403348 l 45.55933,0.03102 24.40678,26.947085 24.40678,26.94709 v 136.50338 136.50338 l 17.80579,1.48495 c 18.28257,1.52469 20.99094,2.28556 18.17171,5.10498 -1.63897,1.63908 -328.43475,2.65416 -387.977503,1.20514 z M 420.00562,311.43051 c -0.004,-56.37966 -0.64436,-116.42034 -1.42221,-133.42373 l -1.41427,-30.91525 h -54.77016 -54.77016 l -1.57887,36.93877 c -1.83385,42.90453 1.47884,40.21608 -30.09022,24.42007 l -19.30806,-9.66105 -23.68596,11.24747 c -13.02728,6.18611 -24.17072,10.76272 -24.76321,10.17023 -0.59248,-0.59248 -1.54213,-12.16043 -2.11033,-25.70654 -0.5682,-13.54611 -1.55214,-29.75472 -2.18654,-36.01912 l -1.15344,-11.38983 H 147.58626 92.420339 V 280.51525 413.93898 H 256.21695 420.01356 l -0.009,-102.50847 z m -181.88097,-112.44635 17.608,-8.85313 19.27023,8.95334 c 10.59864,4.92433 20.22623,8.36249 21.3947,7.64034 2.33754,-1.44468 2.92806,-42.05587 0.76852,-52.85352 l -1.35593,-6.77966 h -40.94915 -40.94916 v 30.37288 c 0,25.74864 0.50279,30.37288 3.3024,30.37288 1.81632,0 11.22599,-3.98391 20.91039,-8.85313 z m -20.22662,-80.2985 c 5.17545,-9.62363 8.76487,-18.14253 7.9765,-18.930905 -0.78837,-0.788369 -22.10757,-1.754938 -47.376,-2.14793 l -45.9426,-0.714531 -15.60244,18.355926 c -8.58135,10.09576 -15.00846,18.94991 -14.28249,19.67589 0.72598,0.72598 24.83182,1.30626 53.56855,1.28951 l 52.24859,-0.0305 z m 74.11553,15.21117 c 0,-1.29099 -4.14915,-10.06373 -9.22034,-19.49498 l -9.22034,-17.147728 -17.66975,-0.03045 -17.66975,-0.03045 -8.90652,17.979308 c -4.89859,9.88861 -8.90652,18.67505 -8.90652,19.52542 0,0.85036 16.10847,1.54612 35.79661,1.54612 24.22528,0 35.79661,-0.75875 35.79661,-2.34724 z m 117.15254,-0.03 c 0,-1.30751 -6.97073,-10.44952 -15.49051,-20.31559 l -15.49052,-17.938302 -34.95016,0.863411 c -37.49446,0.926266 -57.72983,2.468792 -57.72983,4.400701 0,0.66113 4.14916,8.88823 9.22034,18.28243 l 9.22034,17.08036 52.61017,0.002 c 36.69409,0.001 52.61017,-0.71706 52.61017,-2.37515 z"
     id="path5786"
     inkscape:connector-curvature="0"
     transform="scale(0.25)" />
</svg>
