<?xml version="1.0" encoding="UTF-8" standalone="no"?>
<!-- Generator: Adobe Illustrator 19.0.0, SVG Export Plug-In . SVG Version: 6.00 Build 0)  -->

<svg
   xmlns:dc="http://purl.org/dc/elements/1.1/"
   xmlns:cc="http://creativecommons.org/ns#"
   xmlns:rdf="http://www.w3.org/1999/02/22-rdf-syntax-ns#"
   xmlns:svg="http://www.w3.org/2000/svg"
   xmlns="http://www.w3.org/2000/svg"
   xmlns:sodipodi="http://sodipodi.sourceforge.net/DTD/sodipodi-0.dtd"
   xmlns:inkscape="http://www.inkscape.org/namespaces/inkscape"
   version="1.1"
   id="Capa_1"
   x="0px"
   y="0px"
   viewBox="0 0 338.4 338.4"
   style="enable-background:new 0 0 338.4 338.4;"
   xml:space="preserve"
   sodipodi:docname="white_paper.svg"
   inkscape:version="0.92.4 (5da689c313, 2019-01-14)"><metadata
   id="metadata6600"><rdf:RDF><cc:Work
       rdf:about=""><dc:format>image/svg+xml</dc:format><dc:type
         rdf:resource="http://purl.org/dc/dcmitype/StillImage" /><dc:title></dc:title></cc:Work></rdf:RDF></metadata><defs
   id="defs6598" /><sodipodi:namedview
   pagecolor="#ffffff"
   bordercolor="#666666"
   borderopacity="1"
   objecttolerance="10"
   gridtolerance="10"
   guidetolerance="10"
   inkscape:pageopacity="0"
   inkscape:pageshadow="2"
   inkscape:window-width="958"
   inkscape:window-height="1008"
   id="namedview6596"
   showgrid="false"
   inkscape:zoom="3.0116834"
   inkscape:cx="158.33256"
   inkscape:cy="275.83235"
   inkscape:window-x="1913"
   inkscape:window-y="0"
   inkscape:window-maximized="0"
   inkscape:current-layer="Capa_1" />
<g
   id="g6563">
	<g
   id="g6561">
		<g
   id="g6559">
			<path
   d="M233.8,224.8H106.52c-2.576,0.422-4.595,2.441-5.017,5.017c-0.543,3.314,1.703,6.44,5.017,6.983H233.8     c0.651,0.107,1.315,0.107,1.966,0c3.314-0.543,5.56-3.669,5.017-6.983C240.24,226.503,237.114,224.257,233.8,224.8z"
   id="path6547" />
			<path
   d="M233.8,101.76H106.52c-2.576,0.422-4.595,2.441-5.017,5.017c-0.543,3.314,1.703,6.44,5.017,6.983H233.8     c0.651,0.107,1.315,0.107,1.966,0c3.314-0.543,5.56-3.669,5.017-6.983C240.24,103.463,237.114,101.217,233.8,101.76z"
   id="path6549" />
			<path
   d="M233.8,194.04H106.52c-2.576,0.422-4.595,2.441-5.017,5.017c-0.543,3.314,1.703,6.44,5.017,6.983H233.8     c0.651,0.107,1.315,0.107,1.966,0c3.314-0.543,5.56-3.669,5.017-6.983C240.24,195.743,237.114,193.497,233.8,194.04z"
   id="path6551" />
			<path
   d="M231.32,1.88c-1.145-1.177-2.718-1.841-4.36-1.84H67.76V0C51.93,0.022,39.102,12.85,39.08,28.68v281.04     c0.022,15.83,12.85,28.658,28.68,28.68h202.88c15.83-0.022,28.658-12.85,28.68-28.68V74.2v-0.28v-0.28V73.2v-2.48v-0.84     L231.32,1.88z M233.04,20.84l47.4,47.4H245.8c-7.029-0.044-12.716-5.731-12.76-12.76V20.84z M289.04,309.72     c-0.044,9.083-7.397,16.436-16.48,16.48H67.76c-9.083-0.044-16.436-7.397-16.48-16.48V28.68     c0.044-9.083,7.397-16.436,16.48-16.48h153.08v43.08c0.022,13.776,11.184,24.938,24.96,24.96h43.24V309.72z"
   id="path6553" />
			<path
   d="M233.8,132.52H106.52c-0.651-0.107-1.315-0.107-1.966,0c-3.314,0.543-5.56,3.669-5.017,6.983s3.669,5.56,6.983,5.017     H233.8c0.651,0.107,1.315,0.107,1.966,0c3.314-0.543,5.56-3.669,5.017-6.983C240.24,134.223,237.114,131.977,233.8,132.52z"
   id="path6555" />
			<path
   d="M233.8,163.28H106.52c-2.576,0.422-4.595,2.441-5.017,5.017c-0.543,3.314,1.703,6.44,5.017,6.983H233.8     c0.651,0.107,1.315,0.107,1.966,0c3.314-0.543,5.56-3.669,5.017-6.983C240.24,164.983,237.114,162.737,233.8,163.28z"
   id="path6557" />
		</g>
	</g>
</g>
<g
   id="g6565">
</g>
<g
   id="g6567">
</g>
<g
   id="g6569">
</g>
<g
   id="g6571">
</g>
<g
   id="g6573">
</g>
<g
   id="g6575">
</g>
<g
   id="g6577">
</g>
<g
   id="g6579">
</g>
<g
   id="g6581">
</g>
<g
   id="g6583">
</g>
<g
   id="g6585">
</g>
<g
   id="g6587">
</g>
<g
   id="g6589">
</g>
<g
   id="g6591">
</g>
<g
   id="g6593">
</g>
<path
   style="fill:#8a8a8a;fill-opacity:1;stroke-width:1"
   d="m 60.745731,336.68547 c -8.000782,-2.40908 -13.792097,-7.2719 -17.484267,-14.68113 l -3.685871,-7.39658 V 169.30258 c 0,-127.907857 0.265714,-145.941142 2.219284,-150.616693 2.824606,-6.760234 7.128549,-11.3610175 13.854948,-14.8105159 5.051351,-2.590484 9.577376,-2.7282525 89.629615,-2.7282525 h 84.30963 l 34.76105,34.7827904 34.76106,34.782792 -0.009,120.436689 c -0.006,83.79573 -0.49203,122.18023 -1.59897,126.16757 -2.07697,7.4815 -11.70778,17.11231 -19.18929,19.18928 -6.81757,1.89266 -211.319203,2.06112 -217.569191,0.17923 z m 219.708939,-12.1861 c 9.15361,-4.73352 8.61922,3.10997 8.61922,-126.51029 V 80.011524 l -23.30084,-0.03149 c -25.24026,-0.03412 -31.17629,-1.403097 -37.9028,-8.741218 -5.36907,-5.857271 -6.18958,-10.59926 -6.18958,-35.771487 V 11.184407 h -78.28922 c -85.808376,0 -84.828949,-0.09249 -89.89835,8.489323 -2.262409,3.829952 -2.446321,15.044683 -2.446321,149.17346 0,158.65012 -0.414786,150.84175 8.26294,155.55023 5.928136,3.21658 214.935601,3.31292 221.144951,0.10195 z M 257.52813,44.881016 c -12.9947,-13.012627 -24.118,-23.659321 -24.71844,-23.659321 -1.63832,0 -1.29868,31.459953 0.40589,37.597554 2.44857,8.816457 5.03947,9.721089 27.84158,9.721089 h 20.0977 z"
   id="path7145"
   inkscape:connector-curvature="0" /><path
   style="fill:#8a8a8a;fill-opacity:1;stroke-width:1"
   d="m 103.21779,110.9241 c -0.43627,-1.1369 -0.56859,-3.23398 -0.29405,-4.66017 0.47191,-2.45147 4.19256,-2.61342 68.13038,-2.96554 67.16528,-0.36988 67.63766,-0.35212 68.56769,2.57814 2.26073,7.12295 2.34122,7.11465 -69.0651,7.11465 -56.63056,0 -66.66389,-0.30799 -67.33892,-2.06708 z"
   id="path7149"
   inkscape:connector-curvature="0" /><path
   style="fill:#8a8a8a;fill-opacity:1;stroke-width:1"
   d="m 102.05259,142.28368 c -2.694316,-2.69432 -2.869497,-5.16034 -0.53259,-7.49724 2.47763,-2.47763 134.60305,-2.47763 137.08067,0 2.33691,2.3369 2.16173,4.80292 -0.53259,7.49724 -1.98291,1.98291 -10.14281,2.25327 -68.00774,2.25327 -57.86494,0 -66.02484,-0.27036 -68.00775,-2.25327 z"
   id="path7151"
   inkscape:connector-curvature="0" /><path
   style="fill:#8a8a8a;fill-opacity:1;stroke-width:1"
   d="m 104.33403,173.38927 c -1.0548,-0.66859 -1.70005,-2.75579 -1.43389,-4.63821 l 0.48393,-3.42259 67.65063,-0.37245 c 67.18488,-0.36989 67.65707,-0.35214 68.58711,2.57813 2.25858,7.11616 2.25762,7.11626 -67.94467,7.0927 -35.9839,-0.0121 -66.2883,-0.56899 -67.34311,-1.23758 z"
   id="path7153"
   inkscape:connector-curvature="0" /><path
   style="fill:#8a8a8a;fill-opacity:1;stroke-width:1"
   d="m 138.87305,205.12052 c 17.94165,-0.22753 47.30072,-0.22753 65.24237,0 17.94165,0.22753 3.26212,0.4137 -32.62119,0.4137 -35.8833,0 -50.56283,-0.18617 -32.62118,-0.4137 z"
   id="path7155"
   inkscape:connector-curvature="0" /><path
   style="fill:#8a8a8a;fill-opacity:1;stroke-width:1"
   d="m 138.87305,236.66629 c 17.94165,-0.22753 47.30072,-0.22753 65.24237,0 17.94165,0.22753 3.26212,0.41369 -32.62119,0.41369 -35.8833,0 -50.56283,-0.18616 -32.62118,-0.41369 z"
   id="path7157"
   inkscape:connector-curvature="0" /><path
   style="fill:#8a8a8a;fill-opacity:1;stroke-width:1"
   d="m 113.8279,205.13578 c 4.16681,-0.29057 10.61936,-0.28752 14.33898,0.007 3.71962,0.29431 0.31041,0.53204 -7.57603,0.52831 -7.88645,-0.004 -10.92977,-0.24453 -6.76295,-0.53509 z"
   id="path7161"
   inkscape:connector-curvature="0" /><path
   style="fill:#8a8a8a;fill-opacity:1;stroke-width:1"
   d="m 122.38322,205.24493 c 0.9858,-0.39778 2.59894,-0.39778 3.58474,0 0.98581,0.39778 0.17924,0.72324 -1.79237,0.72324 -1.97161,0 -2.77818,-0.32546 -1.79237,-0.72324 z"
   id="path7163"
   inkscape:connector-curvature="0" /><path
   style="fill:#8a8a8a;fill-opacity:1;stroke-width:0.99999994"
   d="m 103.65311,203.85675 c -2.61361,-2.61361 -2.63961,-4.96044 -0.0833,-7.51677 l 1.94809,-1.94809 h 65.7271 65.72709 l 1.63583,1.63583 c 2.2649,2.26489 2.22671,5.83131 -0.0872,8.14521 l -1.72303,1.72303 -24.10199,-0.58703 c -22.83873,-0.55627 -41.41409,-0.6867 -72.41977,-0.50852 -7.51424,0.0432 -15.91154,0.0461 -18.66066,0.006 -2.74911,-0.0396 -7.45819,0.18745 -10.46462,0.50459 l -5.46623,0.57664 z"
   id="path7165"
   inkscape:connector-curvature="0" /><path
   style="fill:#8a8a8a;fill-opacity:1;stroke-width:0.99999994"
   d="m 103.34712,234.32788 c -2.26101,-2.68706 -2.19333,-4.91505 0.22272,-7.3311 l 1.94809,-1.94809 h 65.7271 65.72709 l 1.63583,1.63583 c 2.22562,2.22562 2.22562,5.8324 0,8.05802 l -1.63583,1.63583 H 171.02231 105.0725 Z"
   id="path7167"
   inkscape:connector-curvature="0" /><path
   style="fill:#8a8a8a;fill-opacity:1;stroke-width:0.99999994"
   d=""
   id="path7169"
   inkscape:connector-curvature="0" /><path
   style="fill:#0469b1;fill-opacity:1;stroke-width:1"
   d="m 75.963343,337.05223 -14.995173,-0.37281 -4.51539,-2.13883 c -5.708308,-2.7039 -10.004801,-7.08201 -13.478819,-13.73491 -1.466194,-2.80782 -2.81576,-5.10831 -2.999034,-5.1122 C 39.277977,315.67867 40.45455,26.15633 41.165618,22.69683 43.353062,12.054454 52.077524,3.8674372 62.745215,2.4465806 65.522671,2.0766443 102.39896,1.6030357 148.1624,1.3495528 l 80.52971,-0.44605259 34.93312,34.92837479 34.93313,34.928377 -0.033,110.633438 c -0.0181,60.84839 -0.27603,116.36375 -0.57305,123.36746 -0.52053,12.27409 -0.60961,12.86351 -2.46619,16.31927 -2.6149,4.86727 -9.1667,11.30215 -13.831,13.58418 l -3.81448,1.86625 -22.4639,0.53499 c -24.71721,0.58866 -155.588467,0.57874 -179.413407,-0.0136 z M 269.94874,325.77755 c 10.77213,-0.67967 14.44824,-1.87522 16.19249,-5.26613 2.59975,-5.05404 2.65044,-7.24747 2.91073,-125.95292 l 0.25172,-114.796386 -17.19897,-5.6e-4 C 243.1979,79.760888 236.0724,78.51191 229.49904,72.295091 222.87231,66.027812 221.9611,60.967123 221.93356,30.278042 l -0.0172,-19.1605 -71.81022,0.02244 c -45.24803,0.01414 -74.398652,0.282083 -78.807972,0.724374 -3.848761,0.386062 -7.522579,0.694505 -8.164039,0.685429 -0.64146,-0.0091 -1.166291,0.282461 -1.166291,0.647862 0,0.3654 -0.296582,0.481067 -0.659071,0.257036 -1.225611,-0.757469 -5.216869,1.744671 -6.942515,4.352299 -1.222976,1.848042 -1.926196,4.176789 -2.450393,8.114603 -1.057279,7.942362 -1.616334,225.161835 -0.66772,259.441025 0.395599,14.29539 1.024355,27.34119 1.397235,28.99066 0.372879,1.64947 0.783037,3.68041 0.911462,4.5132 0.375578,2.43549 4.996683,6.48654 6.89136,6.04125 0.28598,-0.0672 2.169433,0.0995 4.18545,0.37049 8.524181,1.14577 47.706554,1.59243 119.294934,1.35992 41.96983,-0.13631 80.67889,-0.52358 86.02015,-0.86058 z M 281.23061,68.584432 c 0,-0.712391 -39.36664,-39.662534 -44.44448,-43.97426 -2.98463,-2.534323 -4.27361,-3.270887 -4.66517,-2.665809 -0.83008,1.282771 -0.47246,29.577125 0.43597,34.491926 1.32905,7.190481 3.7316,10.268345 8.68655,11.128178 7.04232,1.222047 39.98713,2.062383 39.98713,1.019965 z"
   id="path9589"
   inkscape:connector-curvature="0" /><path
   style="fill:#0469b1;fill-opacity:1;stroke-width:1"
   d="m 108.28627,111.98482 c -5.00428,-0.66395 -5.08874,-0.7283 -4.86902,-3.70956 0.17828,-2.41901 0.45469,-2.84285 2.20321,-3.37844 2.28023,-0.69846 102.47605,-1.64827 120.51509,-1.14243 10.77576,0.30217 11.97154,0.45381 12.8292,1.6269 1.73584,2.37423 1.19109,4.32807 -1.55337,5.57147 -2.2901,1.03755 -7.71276,1.13919 -64.81247,1.21481 -34.27231,0.0454 -63.21299,-0.0369 -64.31264,-0.18275 z"
   id="path9591"
   inkscape:connector-curvature="0" /><path
   style="fill:#0469b1;fill-opacity:1;stroke-width:1"
   d="m 114.28434,143.75725 c -5.49823,-0.27999 -10.46251,-0.70738 -11.03173,-0.94975 -1.60009,-0.68132 -3.436558,-4.24085 -2.96101,-5.73917 0.23141,-0.72911 0.99944,-1.63536 1.70673,-2.01389 3.09136,-1.65445 72.94018,-2.47021 113.15624,-1.32155 17.72889,0.50638 21.84631,0.80188 23.15921,1.66213 3.37312,2.21015 1.20613,6.70324 -3.75901,7.79402 -3.66483,0.80511 -106.11375,1.28913 -120.27043,0.56821 z"
   id="path9593"
   inkscape:connector-curvature="0" /><path
   style="fill:#0469b1;fill-opacity:1;stroke-width:1"
   d="m 118.09167,173.7751 c -15.06481,-0.41946 -14.77575,-0.31925 -14.79358,-5.1288 l -0.0102,-2.75298 35.48858,-0.47911 c 19.51872,-0.2635 49.68572,-0.37423 67.03779,-0.24605 l 31.54921,0.23306 1.27356,1.57335 c 1.84138,2.27484 1.63402,4.37975 -0.52853,5.36507 -0.99114,0.4516 -6.01452,1.09313 -11.16307,1.42562 -9.90498,0.63967 -85.98638,0.64655 -108.85375,0.01 z"
   id="path9595"
   inkscape:connector-curvature="0" /><path
   style="fill:#0469b1;fill-opacity:1;stroke-width:1"
   d="m 132.44516,205.28019 c 0.45819,-0.18488 1.20795,-0.18488 1.66613,0 0.45819,0.18489 0.0833,0.33615 -0.83306,0.33615 -0.91637,0 -1.29125,-0.15126 -0.83307,-0.33615 z"
   id="path9597"
   inkscape:connector-curvature="0" /><path
   style="fill:#0469b1;fill-opacity:1;stroke-width:1"
   d="m 129.80703,236.55328 -24.46444,-0.19127 -1.69381,-2.2207 c -2.21709,-2.90676 -2.13659,-4.38798 0.37825,-6.96023 l 2.07206,-2.11934 64.40654,-0.17314 c 35.42361,-0.0952 65.08578,-0.0767 65.91595,0.0411 0.83018,0.11784 1.36208,0.45264 1.18201,0.744 -0.18007,0.29135 0.26534,1.06615 0.98979,1.72177 1.89255,1.71273 1.67511,4.7348 -0.5201,7.22877 l -1.8373,2.08734 -40.98225,0.0165 c -22.54024,0.009 -51.99126,-0.0696 -65.4467,-0.17479 z"
   id="path9599"
   inkscape:connector-curvature="0" /><path
   style="fill:#ffffff;fill-opacity:1;stroke-width:1"
   d="m 104.21965,203.93484 c -2.82125,-3.0801 -2.84029,-4.58334 -0.0955,-7.5436 l 2.16279,-2.33258 64.94608,0.16993 64.94608,0.16993 1.86575,1.7875 c 2.62383,2.5138 2.5155,5.31205 -0.31176,8.05233 l -2.17749,2.11052 -64.53563,0.0292 -64.53562,0.0292 -2.26468,-2.47245 z m 106.36703,1.10079 c -22.12093,-0.59691 -93.04597,-0.62311 -98.63492,-0.0365 -2.38257,0.2501 22.65937,0.46379 55.64875,0.47487 37.37082,0.0126 53.57457,-0.15271 42.98617,-0.43842 z"
   id="path9601"
   inkscape:connector-curvature="0" /><path
   style="fill:#ffffff;fill-opacity:1;stroke-width:1"
   d="m 109.5059,173.14052 c -2.62815,-0.22458 -4.97762,-0.60849 -5.22104,-0.85313 -0.24343,-0.24464 -0.6031,-1.64148 -0.79928,-3.10409 l -0.35669,-2.65929 4.24482,-0.36893 c 7.15855,-0.62217 84.88414,-1.07343 108.29667,-0.62875 l 22.07823,0.41934 1.08314,1.83361 c 0.59573,1.00849 0.90238,2.30467 0.68145,2.88041 -0.98713,2.57242 -3.2589,2.66925 -65.24816,2.78102 -32.98939,0.0595 -62.131,-0.0756 -64.75914,-0.30019 z"
   id="path9603"
   inkscape:connector-curvature="0" /><path
   style="fill:#ffffff;fill-opacity:1;stroke-width:1"
   d="m 108.05952,143.16569 c -4.04398,-0.35038 -5.11252,-0.69656 -6.16468,-1.9972 -1.51473,-1.87245 -1.64921,-4.28231 -0.3014,-5.4009 0.59287,-0.49203 5.07249,-1.03333 11.4963,-1.38915 13.9855,-0.77468 98.0614,-0.76469 112.77094,0.0134 10.26255,0.54285 11.76395,0.76948 12.94905,1.95458 1.12894,1.12894 1.22099,1.60293 0.58313,3.00286 -0.41657,0.91428 -1.74509,2.19525 -2.95227,2.8466 -2.05294,1.10769 -6.11639,1.19103 -62.84201,1.28896 -33.35593,0.0576 -62.8485,-0.086 -65.53906,-0.31914 z"
   id="path9607"
   inkscape:connector-curvature="0" /><path
   style="fill:#ffffff;fill-opacity:1;stroke-width:1"
   d="m 136.7771,111.91867 c 13.83722,-0.10058 36.47993,-0.10058 50.31714,0 13.83721,0.10059 2.51586,0.18289 -25.15857,0.18289 -27.67442,0 -38.99578,-0.0823 -25.15857,-0.18289 z"
   id="path9609"
   inkscape:connector-curvature="0" /><path
   style="fill:#ffffff;fill-opacity:1;stroke-width:1"
   d="M 64.966882,336.41233 C 55.615596,335.67426 48.531014,330.47 42.807348,320.13418 l -2.832421,-5.1148 0.02557,-60.81359 c 0.01406,-33.44747 0.291146,-99.20397 0.615745,-146.12554 0.58755,-84.932399 0.596547,-85.328998 2.02219,-89.139372 C 45.438995,11.455705 51.544981,5.789853 59.302039,3.4784273 62.551915,2.5100386 72.365144,2.3044248 145.84998,1.6650124 l 82.88247,-0.72118381 34.98276,34.91059041 34.98276,34.910591 -0.44743,117.29558 c -0.24608,64.51257 -0.69632,120.17075 -1.00052,123.68486 -0.38433,4.43986 -1.00886,7.28662 -2.04688,9.33033 -1.96292,3.86472 -9.38945,11.08905 -13.985,13.60428 l -3.65302,1.99936 -103.63331,0.0769 c -56.99832,0.0423 -106.032538,-0.11251 -108.964928,-0.34395 z M 273.4983,325.67656 c 10.44075,-1.01994 13.15815,-3.02346 14.45397,-10.65683 0.50755,-2.98986 0.83646,-40.0699 1.06164,-119.68605 L 289.34017,79.979584 268.7907,79.520885 c -28.75182,-0.641786 -33.43656,-1.65648 -40.0803,-8.681266 -2.36687,-2.502601 -3.67149,-4.601254 -4.43919,-7.14102 -1.32158,-4.372106 -2.3154,-21.140609 -2.33832,-39.454067 l -0.0165,-13.19787 -77.80829,0.246222 C 77.07064,11.505021 65.781471,11.6795 62.555492,12.553323 55.961426,14.33946 53.465145,17.082794 51.920121,24.241257 50.872741,29.094019 50.264047,264.90536 51.231516,291.0106 c 0.925803,24.98095 1.39571,28.14399 4.665943,31.4074 3.00831,3.00204 4.816575,3.26054 27.730084,3.96411 22.586087,0.69352 181.597557,0.10264 189.870757,-0.70555 z m 7.73231,-257.144611 c 0,-0.926708 -44.83249,-45.001406 -46.8216,-46.030186 -1.00507,-0.519831 -2.04278,-0.729764 -2.30603,-0.46652 -1.66365,1.663654 -0.46314,34.22643 1.428,38.732985 1.47446,3.513624 4.07811,6.155397 6.63987,6.737078 5.75165,1.305993 41.05976,2.188822 41.05976,1.026643 z"
   id="path9611"
   inkscape:connector-curvature="0" /><path
   style="fill:#ffffff;fill-opacity:1;stroke-width:1"
   d="m 104.00869,234.13374 c -1.82668,-2.95563 -1.74989,-4.55311 0.33811,-7.03457 l 1.72538,-2.05049 h 65.46357 65.46357 l 1.4605,2.59861 c 1.55023,2.75826 1.44413,3.80023 -0.70243,6.89834 l -1.26984,1.83274 h -65.5458 -65.5458 z"
   id="path9613"
   inkscape:connector-curvature="0" /><path
   style="fill:#ffffff;fill-opacity:1;stroke-width:1"
   d="m 105.08503,111.28556 c -0.96052,-0.24905 -1.16128,-0.86928 -0.99968,-3.08834 l 0.20221,-2.7767 7.33097,-0.49068 c 4.03204,-0.26988 33.97315,-0.56979 66.53581,-0.66646 l 59.20484,-0.17576 1.2757,1.57335 c 1.51588,1.86958 1.54371,2.1373 0.38658,3.71976 -0.51845,0.70903 -2.25493,1.44016 -4.16533,1.75378 -3.39659,0.55761 -127.64537,0.70223 -129.7711,0.15105 z"
   id="path9615"
   inkscape:connector-curvature="0" /><path
   style="fill:#ffffff;fill-opacity:1;stroke-width:1"
   d="m 105.21836,113.20155 c -0.63102,-0.27502 -1.40536,-0.81673 -1.72076,-1.2038 -0.52453,-0.64376 -0.51084,-0.68027 0.16054,-0.42813 3.00076,1.12697 7.30813,1.20591 65.80199,1.20591 61.42823,0 65.04378,-0.0826 68.59593,-1.56677 2.55067,-1.06573 1.69972,0.62176 -0.9128,1.81017 -1.45989,0.66409 -4.47322,0.69548 -66.15357,0.68921 -52.3671,-0.005 -64.84161,-0.10141 -65.77133,-0.50659 z"
   id="path9617"
   inkscape:connector-curvature="0" /><path
   style="fill:#ffffff;fill-opacity:1;stroke-width:1"
   d="m 108.37769,104.66607 c 0.47566,-0.0915 1.16396,-0.088 1.52956,0.008 0.3656,0.0957 -0.0236,0.17055 -0.86483,0.1663 -0.84126,-0.004 -1.14039,-0.0825 -0.66473,-0.17402 z"
   id="path9619"
   inkscape:connector-curvature="0" /><path
   style="fill:#ffffff;fill-opacity:1;stroke-width:1"
   d="m 107.24996,104.67531 c 0.27604,-0.11046 0.60585,-0.0969 0.73292,0.0302 0.12706,0.12706 -0.0988,0.21744 -0.50189,0.20084 -0.44547,-0.0183 -0.53608,-0.10896 -0.23103,-0.23103 z"
   id="path9621"
   inkscape:connector-curvature="0" /><path
   style="fill:#ffffff;fill-opacity:1;stroke-width:1"
   d="m 102.10051,110.01687 c -1.07761,-2.57908 -0.20581,-5.28208 2.30929,-7.15987 l 1.05599,-0.78841 h 65.71509 65.7151 l 1.05599,0.78841 c 1.63272,1.219 2.40105,2.49604 2.63157,4.37387 l 0.21123,1.72075 -0.69168,-2.10314 c -0.8689,-2.64201 -1.5222,-2.979 -6.67596,-3.44367 -8.3497,-0.75282 -117.39515,-0.11494 -125.04683,0.73148 -1.83637,0.20314 -3.81524,0.6001 -4.39749,0.88213 -1.02379,0.49591 -1.05802,0.61003 -1.03963,3.46577 0.0105,1.62414 -0.0413,2.95297 -0.11511,2.95297 -0.0738,0 -0.40117,-0.63913 -0.72756,-1.42029 z"
   id="path9623"
   inkscape:connector-curvature="0" /><path
   style="fill:#ffffff;fill-opacity:1;stroke-width:1"
   d="m 116.49903,173.01113 c -5.78366,-0.16076 -10.89101,-0.41761 -11.34967,-0.57076 -1.01415,-0.33865 -1.22909,-0.85415 -1.52112,-3.64821 l -0.22681,-2.16997 3.20288,-0.26153 c 1.76159,-0.14384 20.41046,-0.42069 41.44194,-0.61521 32.8496,-0.30384 46.75168,-0.24729 88.80244,0.36123 1.04436,0.0151 2.50228,2.61729 2.32471,4.14927 -0.17239,1.48733 -1.50075,1.94397 -6.87725,2.36415 -5.9171,0.46244 -101.60379,0.78556 -115.79712,0.39103 z"
   id="path9625"
   inkscape:connector-curvature="0" /><path
   style="fill:#ffffff;fill-opacity:1;stroke-width:1"
   d="m 109.71888,165.85402 c 0.37205,-0.0969 0.88828,-0.0906 1.14717,0.0142 0.25889,0.10475 -0.0455,0.18407 -0.67646,0.17628 -0.63095,-0.008 -0.84277,-0.0935 -0.47071,-0.19045 z"
   id="path9627"
   inkscape:connector-curvature="0" /><path
   style="fill:#ffffff;fill-opacity:1;stroke-width:1"
   d="m 107.41726,165.45128 c 2.26088,-0.0676 5.96051,-0.0676 8.22139,0 2.26089,0.0676 0.41107,0.12292 -4.1107,0.12292 -4.52176,0 -6.37158,-0.0553 -4.11069,-0.12292 z"
   id="path9629"
   inkscape:connector-curvature="0" /><path
   style="fill:#ffffff;fill-opacity:1;stroke-width:1"
   d="m 104.80091,174.50581 c -2.93469,-1.44975 -4.09096,-5.83462 -2.23665,-8.48202 0.39916,-0.56988 0.44995,-0.23164 0.4037,2.68818 -0.05,3.15609 -0.007,3.38612 0.77937,4.17604 0.82587,0.82953 0.90128,0.83904 9.79518,1.23567 12.99226,0.57941 110.16325,0.59744 116.54394,0.0216 4.25438,-0.38392 7.38717,-0.93599 8.88208,-1.56523 1.02305,-0.43062 0.63284,0.41726 -0.63822,1.38676 l -1.21927,0.93001 -65.60382,0.0768 c -60.23426,0.0705 -65.69405,0.0322 -66.70631,-0.46784 z"
   id="path9631"
   inkscape:connector-curvature="0" /><path
   style="fill:#ffffff;fill-opacity:1;stroke-width:1"
   d="m 240.26949,169.50792 c -0.13706,-1.8181 -1.06125,-3.28618 -2.47584,-3.93292 -1.36739,-0.62516 -2.87462,-0.63764 -67.88949,-0.56235 -36.57008,0.0423 -66.49105,0.008 -66.49105,-0.0763 0,-0.0843 0.59172,-0.45514 1.31493,-0.8241 1.30613,-0.66633 1.75159,-0.67083 66.50906,-0.67083 h 65.19412 l 1.50011,0.95134 c 1.7803,1.12904 2.71111,2.83253 2.52373,4.6187 -0.0714,0.68023 -0.15487,0.90362 -0.18557,0.49642 z"
   id="path9633"
   inkscape:connector-curvature="0" /></svg>