<?xml version="1.0" encoding="UTF-8" standalone="no"?>
<svg
   xmlns:dc="http://purl.org/dc/elements/1.1/"
   xmlns:cc="http://creativecommons.org/ns#"
   xmlns:rdf="http://www.w3.org/1999/02/22-rdf-syntax-ns#"
   xmlns:svg="http://www.w3.org/2000/svg"
   xmlns="http://www.w3.org/2000/svg"
   xmlns:sodipodi="http://sodipodi.sourceforge.net/DTD/sodipodi-0.dtd"
   xmlns:inkscape="http://www.inkscape.org/namespaces/inkscape"
   id="Layer_1"
   data-name="Layer 1"
   viewBox="0 0 128 128"
   width="512"
   height="512"
   version="1.1"
   sodipodi:docname="blue_multiple_box.svg"
   inkscape:version="0.92.4 (5da689c313, 2019-01-14)">
  <metadata
     id="metadata7257">
    <rdf:RDF>
      <cc:Work
         rdf:about="">
        <dc:format>image/svg+xml</dc:format>
        <dc:type
           rdf:resource="http://purl.org/dc/dcmitype/StillImage" />
        <dc:title>BOXES</dc:title>
      </cc:Work>
    </rdf:RDF>
  </metadata>
  <defs
     id="defs7255" />
  <sodipodi:namedview
     pagecolor="#ffffff"
     bordercolor="#666666"
     borderopacity="1"
     objecttolerance="10"
     gridtolerance="10"
     guidetolerance="10"
     inkscape:pageopacity="0"
     inkscape:pageshadow="2"
     inkscape:window-width="958"
     inkscape:window-height="1008"
     id="namedview7253"
     showgrid="false"
     inkscape:zoom="0.4609375"
     inkscape:cx="256"
     inkscape:cy="256"
     inkscape:window-x="1913"
     inkscape:window-y="0"
     inkscape:window-maximized="0"
     inkscape:current-layer="Layer_1" />
  <title
     id="title7248">BOXES</title>
  <path
     d="M117.825,65.82c-.011-.014-.012-.026-.025-.04l-6.889-7.656a1.748,1.748,0,0,0-1.3-.58H90.937V25.084A1.735,1.735,0,0,0,90.5,23.94c-.006-.008-.006-.018-.013-.026l-6.61-7.346a1.748,1.748,0,0,0-1.3-.58H45.423a1.748,1.748,0,0,0-1.3.58l-6.61,7.346c-.008.009-.008.019-.015.028a1.735,1.735,0,0,0-.434,1.142v32.46H18.389a1.748,1.748,0,0,0-1.3.58L10.2,65.78c-.009.01-.009.021-.017.031a1.735,1.735,0,0,0-.432,1.14v43.311a1.75,1.75,0,0,0,1.75,1.75h105a1.75,1.75,0,0,0,1.75-1.75V66.951A1.734,1.734,0,0,0,117.825,65.82Zm-5.254-.619H98.521l-2.337-4.156h12.648ZM84.752,68.7h11V76l-4.69-2.438a1.75,1.75,0,0,0-1.614,0L84.752,76Zm-52.5,0h11V76l-4.69-2.438a1.75,1.75,0,0,0-1.614,0L32.252,76ZM58.8,26.834H69.2v6.819l-4.4-2.286a1.75,1.75,0,0,0-1.614,0l-4.4,2.286Zm-3.5,0v9.7a1.75,1.75,0,0,0,2.557,1.553L64,34.893l6.147,3.2A1.75,1.75,0,0,0,72.7,36.535v-9.7H87.437V64.891H40.563V26.834Zm36.872,34.21L94.505,65.2H90.937V61.045Zm-6.91-37.71H71.978l-2.163-3.846H81.8ZM65.8,19.489l2.163,3.846H60.038L62.2,19.489Zm-19.6,0H58.185l-2.163,3.846H42.742ZM37.063,65.2H33.495l2.337-4.156h1.232Zm-17.9-4.156H31.816L29.479,65.2H15.429ZM13.25,68.7h15.5V78.885a1.75,1.75,0,0,0,2.557,1.553l6.44-3.348,6.44,3.348a1.75,1.75,0,0,0,2.557-1.553V68.7h15.5v39.811h-49Zm101.5,39.811h-49V68.7h15.5V78.885a1.75,1.75,0,0,0,2.557,1.553l6.44-3.348,6.44,3.348a1.75,1.75,0,0,0,2.557-1.553V68.7h15.5Z"
     id="path7250" />
  <path
     style="fill:#0469b1;fill-opacity:1;stroke-width:1"
     d="m 41.809394,445.04554 c -0.801268,-0.80126 -1.456852,-41.6264 -1.456852,-90.72254 v -89.26569 l 15.36757,-16.67781 15.367569,-16.67781 h 38.869719 38.86972 l 0.049,-66.71186 0.0491,-66.711864 15.33449,-16.813559 15.3345,-16.81356 h 76.6219 76.62189 l 15.38438,17.430216 15.38439,17.430216 v 66.095211 66.0952 h 38.85375 38.85373 l 15.34958,16.81356 15.34959,16.81356 -0.50842,90.0339 -0.5084,90.0339 -213.86518,0.5529 C 139.50558,446.2536 42.610663,445.84682 41.809394,445.04554 Z m 208.467856,-90.2252 -0.56878,-80.81356 -32,-0.60037 -32,-0.60037 v 22.90574 c 0,27.71643 -0.97878,28.59716 -20.87649,18.78515 l -13.83537,-6.82253 -13.83537,6.82253 c -19.89771,9.81201 -20.87649,8.93128 -20.87649,-18.78515 v -22.90574 l -32.000004,0.60037 -32,0.60037 -0.568778,80.81356 -0.568779,80.81356 h 99.849421 99.84942 z m 208.78716,-0.54237 v -81.35594 h -31.45763 -31.45763 v 22.84774 c 0,27.70621 -0.86634,28.44881 -21.52832,18.4532 l -14.58866,-7.05755 -11.94743,6.74271 c -6.57109,3.70849 -14.03208,6.74272 -16.57999,6.74272 -4.40492,0 -4.66278,-1.14595 -5.24831,-23.32204 l -0.61576,-23.32203 -32,-0.60037 -32,-0.60037 v 81.41394 81.41392 h 98.71186 98.71187 z m -318.91639,-54.77966 10.84859,-5.96611 10.84859,5.96611 c 5.96672,3.28135 11.37899,5.9661 12.02725,5.9661 0.64826,0 0.89182,-7.07797 0.54124,-15.72882 l -0.63742,-15.72881 h -22.77966 -22.77966 l -0.63742,15.72881 c -0.35058,8.65085 -0.10702,15.72882 0.54124,15.72882 0.64826,0 6.06053,-2.68475 12.02725,-5.9661 z m 232.03318,0.27661 10.951,5.96028 v -16.40658 -16.40659 h -22.77966 -22.77966 v 16.24761 16.24762 l 11.82865,-5.8013 11.82866,-5.80133 z M 122.61628,254.76766 c 2.48376,-4.01881 4.51592,-8.41203 4.51592,-9.76272 0,-1.68969 -8.0081,-2.45579 -25.6708,-2.45579 H 75.790599 l -6.87157,8.55075 c -3.779365,4.70292 -6.871571,9.09614 -6.871571,9.76272 0,0.66657 12.6119,1.21196 28.026448,1.21196 h 28.026444 z m 26.21084,-2.4558 c 0,-12.56156 -4.73078,-13.07442 -10.80337,-1.17117 -2.41069,4.72535 -4.38307,9.11857 -4.38307,9.76271 0,0.64415 3.41695,1.17118 7.59322,1.17118 7.55304,0 7.59322,-0.0517 7.59322,-9.76272 z m 229.9661,8.56541 c 0,-0.65851 -2.19661,-5.04421 -4.88136,-9.746 -6.58948,-11.54012 -10.30508,-11.11444 -10.30508,1.18059 0,9.71106 0.0401,9.76272 7.59322,9.76272 4.17627,0 7.59322,-0.53879 7.59322,-1.19731 z m 71.53451,-0.42981 c -0.0323,-0.89492 -3.46237,-5.28814 -7.62242,-9.76271 l -7.56371,-8.1356 h -26.06041 -26.06041 l 3.58109,7.05085 c 6.42361,12.64746 5.92679,12.47458 35.84681,12.47458 15.36577,0 27.91134,-0.73221 27.87905,-1.62712 z m -99.7379,-77.55932 v -77.01695 h -30.37288 -30.37288 v 21.763 c 0,26.43115 -1.12339,27.38311 -20.84031,17.66026 l -13.79916,-6.80469 -12.60555,6.87425 c -18.55034,10.11616 -20.00922,8.82347 -20.00922,-17.72982 v -21.763 h -30.37288 -30.37288 v 77.01695 77.01694 h 94.37288 94.37288 z m -83.75376,-52.31631 9.99105,5.85514 V 121.14908 105.87119 H 255.1322 233.43729 v 15.16287 15.16286 l 11.70387,-5.74011 11.70388,-5.74012 z M 228.88401,87.3065 c 2.5043,-4.244476 4.55328,-8.149561 4.55328,-8.677966 0,-0.528406 -10.93658,-0.960737 -24.3035,-0.960737 h -24.3035 l -7.15413,6.934057 c -3.93477,3.813732 -7.15413,7.718816 -7.15413,8.677966 0,0.959149 12.10696,1.743909 26.90435,1.743909 h 26.90435 z m 43.60413,6.706087 c 0,-0.556127 -1.64524,-4.461212 -3.65605,-8.677966 -3.31336,-6.948172 -4.49584,-7.666824 -12.61514,-7.666824 -8.1193,0 -9.30178,0.718652 -12.61513,7.666824 -2.01083,4.216754 -3.65606,8.121839 -3.65606,8.677966 0,0.556128 7.32204,1.011142 16.27119,1.011142 8.94915,0 16.27119,-0.455014 16.27119,-1.011142 z m 69.42372,-0.512694 c 0,-0.838109 -3.12033,-4.743194 -6.93406,-8.677966 l -6.93404,-7.15413 h -24.52359 c -13.48796,0 -24.52356,0.61697 -24.52356,1.371044 0,0.754075 2.03216,4.65916 4.51593,8.677967 l 4.51592,7.306921 h 26.9417 c 14.81793,0 26.9417,-0.685727 26.9417,-1.523836 z"
     id="path7802"
     inkscape:connector-curvature="0"
     transform="scale(0.25)" />
</svg>
