<?xml version="1.0" encoding="UTF-8" standalone="no"?>
<!-- Generator: Adobe Illustrator 19.0.0, SVG Export Plug-In . SVG Version: 6.00 Build 0)  -->

<svg
   xmlns:dc="http://purl.org/dc/elements/1.1/"
   xmlns:cc="http://creativecommons.org/ns#"
   xmlns:rdf="http://www.w3.org/1999/02/22-rdf-syntax-ns#"
   xmlns:svg="http://www.w3.org/2000/svg"
   xmlns="http://www.w3.org/2000/svg"
   xmlns:sodipodi="http://sodipodi.sourceforge.net/DTD/sodipodi-0.dtd"
   xmlns:inkscape="http://www.inkscape.org/namespaces/inkscape"
   version="1.1"
   id="Capa_1"
   x="0px"
   y="0px"
   viewBox="0 0 321 321"
   style="enable-background:new 0 0 321 321;"
   xml:space="preserve"
   sodipodi:docname="grey_home.svg"
   inkscape:version="0.92.4 (5da689c313, 2019-01-14)"><metadata
   id="metadata5945"><rdf:RDF><cc:Work
       rdf:about=""><dc:format>image/svg+xml</dc:format><dc:type
         rdf:resource="http://purl.org/dc/dcmitype/StillImage" /><dc:title></dc:title></cc:Work></rdf:RDF></metadata><defs
   id="defs5943" /><sodipodi:namedview
   pagecolor="#ffffff"
   bordercolor="#666666"
   borderopacity="1"
   objecttolerance="10"
   gridtolerance="10"
   guidetolerance="10"
   inkscape:pageopacity="0"
   inkscape:pageshadow="2"
   inkscape:window-width="958"
   inkscape:window-height="1008"
   id="namedview5941"
   showgrid="false"
   inkscape:zoom="0.73520249"
   inkscape:cx="160.5"
   inkscape:cy="160.5"
   inkscape:window-x="1913"
   inkscape:window-y="0"
   inkscape:window-maximized="0"
   inkscape:current-layer="Capa_1" />
<g
   id="g5908">
	<g
   id="g5906">
		<path
   d="M306.3,106.6L165.9,1.8c-2.8-2.4-7.2-2.4-10,0L14.7,106.6c-2,1.6-3.6,4-3.6,6.8v199.2c0.4,4.8,4,8.4,8.8,8.4h281.6    c4.8,0,8.4-3.6,8.4-8.4V113.4C309.9,110.6,308.7,108.2,306.3,106.6z M193.5,304.2h-65.6v-98.4h65.6V304.2z M293.1,304.2h-82.8    V197.4c0-4.8-3.6-8.4-8.4-8.4h-82.4c-4.8,0-8.4,3.6-8.4,8.4v106.8H28.3V117.4L160.7,19l132.4,98.4V304.2z"
   id="path5904" />
	</g>
</g>
<g
   id="g5910">
</g>
<g
   id="g5912">
</g>
<g
   id="g5914">
</g>
<g
   id="g5916">
</g>
<g
   id="g5918">
</g>
<g
   id="g5920">
</g>
<g
   id="g5922">
</g>
<g
   id="g5924">
</g>
<g
   id="g5926">
</g>
<g
   id="g5928">
</g>
<g
   id="g5930">
</g>
<g
   id="g5932">
</g>
<g
   id="g5934">
</g>
<g
   id="g5936">
</g>
<g
   id="g5938">
</g>
<path
   style="fill:#8a8a8a;fill-opacity:1;stroke-width:1"
   d="m 14.417797,318.00763 c -2.671906,-2.67191 -2.720339,-4.5339 -2.720339,-104.58237 0,-95.04781 0.159233,-102.04762 2.380296,-104.6363 C 18.988455,103.06546 157.97297,1.1121053 160.88082,1.1002374 163.75717,1.0884979 302.10168,102.93718 307.19428,108.81563 c 2.22131,2.56407 2.3803,9.55166 2.3803,104.60963 0,100.04847 -0.0484,101.91046 -2.72034,104.58237 -2.68596,2.68595 -4.5339,2.72034 -146.21822,2.72034 -141.684325,0 -143.532265,-0.0344 -146.218223,-2.72034 z M 112.35,248.80552 c 0,-45.39667 0.3417,-55.88398 1.86194,-57.14567 1.32756,-1.10178 14.88158,-1.44235 47.2262,-1.18667 l 45.36423,0.3586 1.71987,3.40042 c 1.29832,2.56698 1.72478,16.48558 1.73991,56.78708 l 0.02,53.38665 h 41.49449 41.49447 l -0.34934,-94.1293 -0.34936,-94.12932 -64.60805,-48.117561 C 192.42998,41.56509 162.64172,19.609153 161.76829,19.238776 160.89486,18.868398 130.59708,40.55384 94.4399,67.428645 l -65.740324,48.863285 -0.349352,94.057 -0.349355,94.057 H 70.175435 112.35 Z m 81.61017,5.95423 v -49.64619 h -33.32415 -33.32416 v 49.64619 49.64618 h 33.32416 33.32415 z"
   id="path6490"
   inkscape:connector-curvature="0" /></svg>