<?xml version="1.0" encoding="UTF-8" standalone="no"?>
<!-- Generator: Adobe Illustrator 19.0.0, SVG Export Plug-In . SVG Version: 6.00 Build 0)  -->

<svg
   xmlns:dc="http://purl.org/dc/elements/1.1/"
   xmlns:cc="http://creativecommons.org/ns#"
   xmlns:rdf="http://www.w3.org/1999/02/22-rdf-syntax-ns#"
   xmlns:svg="http://www.w3.org/2000/svg"
   xmlns="http://www.w3.org/2000/svg"
   xmlns:sodipodi="http://sodipodi.sourceforge.net/DTD/sodipodi-0.dtd"
   xmlns:inkscape="http://www.inkscape.org/namespaces/inkscape"
   version="1.1"
   id="Capa_1"
   x="0px"
   y="0px"
   viewBox="0 0 338.4 338.4"
   style="enable-background:new 0 0 338.4 338.4;"
   xml:space="preserve"
   sodipodi:docname="grey_paper.svg"
   inkscape:version="0.92.4 (5da689c313, 2019-01-14)"><metadata
   id="metadata6600"><rdf:RDF><cc:Work
       rdf:about=""><dc:format>image/svg+xml</dc:format><dc:type
         rdf:resource="http://purl.org/dc/dcmitype/StillImage" /><dc:title></dc:title></cc:Work></rdf:RDF></metadata><defs
   id="defs6598" /><sodipodi:namedview
   pagecolor="#ffffff"
   bordercolor="#666666"
   borderopacity="1"
   objecttolerance="10"
   gridtolerance="10"
   guidetolerance="10"
   inkscape:pageopacity="0"
   inkscape:pageshadow="2"
   inkscape:window-width="958"
   inkscape:window-height="1008"
   id="namedview6596"
   showgrid="false"
   inkscape:zoom="1.5004828"
   inkscape:cx="169.2"
   inkscape:cy="169.2"
   inkscape:window-x="1913"
   inkscape:window-y="0"
   inkscape:window-maximized="0"
   inkscape:current-layer="Capa_1" />
<g
   id="g6563">
	<g
   id="g6561">
		<g
   id="g6559">
			<path
   d="M233.8,224.8H106.52c-2.576,0.422-4.595,2.441-5.017,5.017c-0.543,3.314,1.703,6.44,5.017,6.983H233.8     c0.651,0.107,1.315,0.107,1.966,0c3.314-0.543,5.56-3.669,5.017-6.983C240.24,226.503,237.114,224.257,233.8,224.8z"
   id="path6547" />
			<path
   d="M233.8,101.76H106.52c-2.576,0.422-4.595,2.441-5.017,5.017c-0.543,3.314,1.703,6.44,5.017,6.983H233.8     c0.651,0.107,1.315,0.107,1.966,0c3.314-0.543,5.56-3.669,5.017-6.983C240.24,103.463,237.114,101.217,233.8,101.76z"
   id="path6549" />
			<path
   d="M233.8,194.04H106.52c-2.576,0.422-4.595,2.441-5.017,5.017c-0.543,3.314,1.703,6.44,5.017,6.983H233.8     c0.651,0.107,1.315,0.107,1.966,0c3.314-0.543,5.56-3.669,5.017-6.983C240.24,195.743,237.114,193.497,233.8,194.04z"
   id="path6551" />
			<path
   d="M231.32,1.88c-1.145-1.177-2.718-1.841-4.36-1.84H67.76V0C51.93,0.022,39.102,12.85,39.08,28.68v281.04     c0.022,15.83,12.85,28.658,28.68,28.68h202.88c15.83-0.022,28.658-12.85,28.68-28.68V74.2v-0.28v-0.28V73.2v-2.48v-0.84     L231.32,1.88z M233.04,20.84l47.4,47.4H245.8c-7.029-0.044-12.716-5.731-12.76-12.76V20.84z M289.04,309.72     c-0.044,9.083-7.397,16.436-16.48,16.48H67.76c-9.083-0.044-16.436-7.397-16.48-16.48V28.68     c0.044-9.083,7.397-16.436,16.48-16.48h153.08v43.08c0.022,13.776,11.184,24.938,24.96,24.96h43.24V309.72z"
   id="path6553" />
			<path
   d="M233.8,132.52H106.52c-0.651-0.107-1.315-0.107-1.966,0c-3.314,0.543-5.56,3.669-5.017,6.983s3.669,5.56,6.983,5.017     H233.8c0.651,0.107,1.315,0.107,1.966,0c3.314-0.543,5.56-3.669,5.017-6.983C240.24,134.223,237.114,131.977,233.8,132.52z"
   id="path6555" />
			<path
   d="M233.8,163.28H106.52c-2.576,0.422-4.595,2.441-5.017,5.017c-0.543,3.314,1.703,6.44,5.017,6.983H233.8     c0.651,0.107,1.315,0.107,1.966,0c3.314-0.543,5.56-3.669,5.017-6.983C240.24,164.983,237.114,162.737,233.8,163.28z"
   id="path6557" />
		</g>
	</g>
</g>
<g
   id="g6565">
</g>
<g
   id="g6567">
</g>
<g
   id="g6569">
</g>
<g
   id="g6571">
</g>
<g
   id="g6573">
</g>
<g
   id="g6575">
</g>
<g
   id="g6577">
</g>
<g
   id="g6579">
</g>
<g
   id="g6581">
</g>
<g
   id="g6583">
</g>
<g
   id="g6585">
</g>
<g
   id="g6587">
</g>
<g
   id="g6589">
</g>
<g
   id="g6591">
</g>
<g
   id="g6593">
</g>
<path
   style="fill:#8a8a8a;fill-opacity:1;stroke-width:1"
   d="m 60.745731,336.68547 c -8.000782,-2.40908 -13.792097,-7.2719 -17.484267,-14.68113 l -3.685871,-7.39658 V 169.30258 c 0,-127.907857 0.265714,-145.941142 2.219284,-150.616693 2.824606,-6.760234 7.128549,-11.3610175 13.854948,-14.8105159 5.051351,-2.590484 9.577376,-2.7282525 89.629615,-2.7282525 h 84.30963 l 34.76105,34.7827904 34.76106,34.782792 -0.009,120.436689 c -0.006,83.79573 -0.49203,122.18023 -1.59897,126.16757 -2.07697,7.4815 -11.70778,17.11231 -19.18929,19.18928 -6.81757,1.89266 -211.319203,2.06112 -217.569191,0.17923 z m 219.708939,-12.1861 c 9.15361,-4.73352 8.61922,3.10997 8.61922,-126.51029 V 80.011524 l -23.30084,-0.03149 c -25.24026,-0.03412 -31.17629,-1.403097 -37.9028,-8.741218 -5.36907,-5.857271 -6.18958,-10.59926 -6.18958,-35.771487 V 11.184407 h -78.28922 c -85.808376,0 -84.828949,-0.09249 -89.89835,8.489323 -2.262409,3.829952 -2.446321,15.044683 -2.446321,149.17346 0,158.65012 -0.414786,150.84175 8.26294,155.55023 5.928136,3.21658 214.935601,3.31292 221.144951,0.10195 z M 257.52813,44.881016 c -12.9947,-13.012627 -24.118,-23.659321 -24.71844,-23.659321 -1.63832,0 -1.29868,31.459953 0.40589,37.597554 2.44857,8.816457 5.03947,9.721089 27.84158,9.721089 h 20.0977 z"
   id="path7145"
   inkscape:connector-curvature="0" /><path
   style="fill:#8a8a8a;fill-opacity:1;stroke-width:1"
   d="m 103.21779,110.9241 c -0.43627,-1.1369 -0.56859,-3.23398 -0.29405,-4.66017 0.47191,-2.45147 4.19256,-2.61342 68.13038,-2.96554 67.16528,-0.36988 67.63766,-0.35212 68.56769,2.57814 2.26073,7.12295 2.34122,7.11465 -69.0651,7.11465 -56.63056,0 -66.66389,-0.30799 -67.33892,-2.06708 z"
   id="path7149"
   inkscape:connector-curvature="0" /><path
   style="fill:#8a8a8a;fill-opacity:1;stroke-width:1"
   d="m 102.05259,142.28368 c -2.694316,-2.69432 -2.869497,-5.16034 -0.53259,-7.49724 2.47763,-2.47763 134.60305,-2.47763 137.08067,0 2.33691,2.3369 2.16173,4.80292 -0.53259,7.49724 -1.98291,1.98291 -10.14281,2.25327 -68.00774,2.25327 -57.86494,0 -66.02484,-0.27036 -68.00775,-2.25327 z"
   id="path7151"
   inkscape:connector-curvature="0" /><path
   style="fill:#8a8a8a;fill-opacity:1;stroke-width:1"
   d="m 104.33403,173.38927 c -1.0548,-0.66859 -1.70005,-2.75579 -1.43389,-4.63821 l 0.48393,-3.42259 67.65063,-0.37245 c 67.18488,-0.36989 67.65707,-0.35214 68.58711,2.57813 2.25858,7.11616 2.25762,7.11626 -67.94467,7.0927 -35.9839,-0.0121 -66.2883,-0.56899 -67.34311,-1.23758 z"
   id="path7153"
   inkscape:connector-curvature="0" /><path
   style="fill:#8a8a8a;fill-opacity:1;stroke-width:1"
   d="m 138.87305,205.12052 c 17.94165,-0.22753 47.30072,-0.22753 65.24237,0 17.94165,0.22753 3.26212,0.4137 -32.62119,0.4137 -35.8833,0 -50.56283,-0.18617 -32.62118,-0.4137 z"
   id="path7155"
   inkscape:connector-curvature="0" /><path
   style="fill:#8a8a8a;fill-opacity:1;stroke-width:1"
   d="m 138.87305,236.66629 c 17.94165,-0.22753 47.30072,-0.22753 65.24237,0 17.94165,0.22753 3.26212,0.41369 -32.62119,0.41369 -35.8833,0 -50.56283,-0.18616 -32.62118,-0.41369 z"
   id="path7157"
   inkscape:connector-curvature="0" /><path
   style="fill:#8a8a8a;fill-opacity:1;stroke-width:1"
   d="m 113.8279,205.13578 c 4.16681,-0.29057 10.61936,-0.28752 14.33898,0.007 3.71962,0.29431 0.31041,0.53204 -7.57603,0.52831 -7.88645,-0.004 -10.92977,-0.24453 -6.76295,-0.53509 z"
   id="path7161"
   inkscape:connector-curvature="0" /><path
   style="fill:#8a8a8a;fill-opacity:1;stroke-width:1"
   d="m 122.38322,205.24493 c 0.9858,-0.39778 2.59894,-0.39778 3.58474,0 0.98581,0.39778 0.17924,0.72324 -1.79237,0.72324 -1.97161,0 -2.77818,-0.32546 -1.79237,-0.72324 z"
   id="path7163"
   inkscape:connector-curvature="0" /><path
   style="fill:#8a8a8a;fill-opacity:1;stroke-width:0.99999994"
   d="m 103.65311,203.85675 c -2.61361,-2.61361 -2.63961,-4.96044 -0.0833,-7.51677 l 1.94809,-1.94809 h 65.7271 65.72709 l 1.63583,1.63583 c 2.2649,2.26489 2.22671,5.83131 -0.0872,8.14521 l -1.72303,1.72303 -24.10199,-0.58703 c -22.83873,-0.55627 -41.41409,-0.6867 -72.41977,-0.50852 -7.51424,0.0432 -15.91154,0.0461 -18.66066,0.006 -2.74911,-0.0396 -7.45819,0.18745 -10.46462,0.50459 l -5.46623,0.57664 z"
   id="path7165"
   inkscape:connector-curvature="0" /><path
   style="fill:#8a8a8a;fill-opacity:1;stroke-width:0.99999994"
   d="m 103.34712,234.32788 c -2.26101,-2.68706 -2.19333,-4.91505 0.22272,-7.3311 l 1.94809,-1.94809 h 65.7271 65.72709 l 1.63583,1.63583 c 2.22562,2.22562 2.22562,5.8324 0,8.05802 l -1.63583,1.63583 H 171.02231 105.0725 Z"
   id="path7167"
   inkscape:connector-curvature="0" /><path
   style="fill:#8a8a8a;fill-opacity:1;stroke-width:0.99999994"
   d=""
   id="path7169"
   inkscape:connector-curvature="0" /></svg>