<svg id="Layer_1" height="512" viewBox="0 0 128 128" width="512" xmlns="http://www.w3.org/2000/svg" data-name="Layer 1"><path d="m116.5 103.11h-8.661v-67.694a1.735 1.735 0 0 0 -.429-1.136c-.009-.011-.01-.023-.02-.034l-11.045-12.276a1.748 1.748 0 0 0 -1.3-.58h-62.089a1.748 1.748 0 0 0 -1.3.58l-11.046 12.275c-.006.007-.006.018-.012.024a1.735 1.735 0 0 0 -.437 1.146v67.695h-8.661a1.75 1.75 0 0 0 0 3.5h105a1.75 1.75 0 0 0 0-3.5zm-14.339-69.444h-25.517l-4.935-8.776h22.556zm-48.031 3.5h19.741v14.5l-9.063-4.711a1.75 1.75 0 0 0 -1.614 0l-9.063 4.711zm13.564-12.276 4.935 8.775h-17.258l4.935-8.775zm-33.958 0h22.555l-4.935 8.775h-25.517zm-10.075 78.22v-65.944h26.968v17.385a1.75 1.75 0 0 0 2.558 1.549l10.813-5.618 10.813 5.618a1.75 1.75 0 0 0 2.557-1.553v-17.381h26.969v65.944z"/></svg>